<?xml version="1.0" encoding="UTF-8" standalone="no"?>
<!DOCTYPE svg PUBLIC "-//W3C//DTD SVG 1.1//EN"
 "http://www.w3.org/Graphics/SVG/1.1/DTD/svg11.dtd">
<!-- Generated by graphviz version 2.43.0 (0)
 -->
<!-- Title: G Pages: 1 -->
<svg width="1384pt" height="782pt"
 viewBox="0.00 0.00 1384.00 782.00" xmlns="http://www.w3.org/2000/svg" xmlns:xlink="http://www.w3.org/1999/xlink">
<g id="graph0" class="graph" transform="scale(1 1) rotate(0) translate(4 778)">
<title>G</title>
<polygon fill="white" stroke="transparent" points="-4,4 -4,-778 1380,-778 1380,4 -4,4"/>
<g id="clust1" class="cluster">
<title>cluster_root</title>
<g id="a_clust1"><a xlink:title="eventq_index=0&#10;full_system=false&#10;sim_quantum=0&#10;time_sync_enable=false&#10;time_sync_period=100000000000&#10;time_sync_spin_threshold=100000000">
<path fill="#bab6ae" stroke="#000000" d="M20,-8C20,-8 1356,-8 1356,-8 1362,-8 1368,-14 1368,-20 1368,-20 1368,-754 1368,-754 1368,-760 1362,-766 1356,-766 1356,-766 20,-766 20,-766 14,-766 8,-760 8,-754 8,-754 8,-20 8,-20 8,-14 14,-8 20,-8"/>
<text text-anchor="middle" x="688" y="-750.8" font-family="Arial" font-size="14.00" fill="#000000">root </text>
<text text-anchor="middle" x="688" y="-735.8" font-family="Arial" font-size="14.00" fill="#000000">: Root</text>
</a>
</g>
</g>
<g id="clust2" class="cluster">
<title>cluster_board</title>
<g id="a_clust2"><a xlink:title="auto_unlink_shared_backstore=false&#10;cache_line_size=64&#10;eventq_index=0&#10;exit_on_work_items=true&#10;init_param=0&#10;m5ops_base=0&#10;mem_mode=timing&#10;mem_ranges=0:4294967296&#10;memories=board.memory.mem_ctrl0.dram board.memory.mem_ctrl1.dram&#10;mmap_using_noreserve=false&#10;multi_thread=false&#10;&#10;um_work_ids=16&#10;&#13;eadfile=&#10;&#13;edirect_paths=&#10;shadow_rom_ranges=&#10;shared_backstore=&#10;symbolfile=&#10;thermal_components=&#10;thermal_model=Null&#10;work_begin_ckpt_count=0&#10;work_begin_cpu_id_exit=&#45;1&#10;work_begin_exit_count=0&#10;work_cpus_ckpt_count=0&#10;work_end_ckpt_count=0&#10;work_end_exit_count=0&#10;work_item_id=&#45;1&#10;workload=board.workload">
<path fill="#e4e7eb" stroke="#000000" d="M28,-16C28,-16 1348,-16 1348,-16 1354,-16 1360,-22 1360,-28 1360,-28 1360,-708 1360,-708 1360,-714 1354,-720 1348,-720 1348,-720 28,-720 28,-720 22,-720 16,-714 16,-708 16,-708 16,-28 16,-28 16,-22 22,-16 28,-16"/>
<text text-anchor="middle" x="688" y="-704.8" font-family="Arial" font-size="14.00" fill="#000000">board </text>
<text text-anchor="middle" x="688" y="-689.8" font-family="Arial" font-size="14.00" fill="#000000">: SimpleBoard</text>
</a>
</g>
</g>
<g id="clust6" class="cluster">
<title>cluster_board_processor</title>
<g id="a_clust6"><a xlink:title="eventq_index=0&#10;thermal_domain=Null">
<path fill="#bab6ae" stroke="#000000" d="M368,-314C368,-314 1340,-314 1340,-314 1346,-314 1352,-320 1352,-326 1352,-326 1352,-662 1352,-662 1352,-668 1346,-674 1340,-674 1340,-674 368,-674 368,-674 362,-674 356,-668 356,-662 356,-662 356,-326 356,-326 356,-320 362,-314 368,-314"/>
<text text-anchor="middle" x="854" y="-658.8" font-family="Arial" font-size="14.00" fill="#000000">processor </text>
<text text-anchor="middle" x="854" y="-643.8" font-family="Arial" font-size="14.00" fill="#000000">: HNSWProcessor</text>
</a>
</g>
</g>
<g id="clust7" class="cluster">
<title>cluster_board_processor_cores</title>
<g id="a_clust7"><a xlink:title="eventq_index=0&#10;thermal_domain=Null">
<path fill="#9f9c95" stroke="#000000" d="M376,-322C376,-322 1332,-322 1332,-322 1338,-322 1344,-328 1344,-334 1344,-334 1344,-616 1344,-616 1344,-622 1338,-628 1332,-628 1332,-628 376,-628 376,-628 370,-628 364,-622 364,-616 364,-616 364,-334 364,-334 364,-328 370,-322 376,-322"/>
<text text-anchor="middle" x="854" y="-612.8" font-family="Arial" font-size="14.00" fill="#000000">cores </text>
<text text-anchor="middle" x="854" y="-597.8" font-family="Arial" font-size="14.00" fill="#000000">: HNSWCore</text>
</a>
</g>
</g>
<g id="clust8" class="cluster">
<title>cluster_board_processor_cores_core</title>
<g id="a_clust8"><a xlink:title="LFSTSize=1024&#10;LQEntries=32&#10;LSQCheckLoads=true&#10;LSQDepCheckShift=4&#10;SQEntries=32&#10;SSITSize=1024&#10;activity=0&#10;backComSize=5&#10;branchPred=board.processor.cores.core.branchPred&#10;cacheLoadPorts=200&#10;cacheStorePorts=200&#10;checker=Null&#10;clk_domain=board.clk_domain&#10;commitToDecodeDelay=1&#10;commitToFetchDelay=1&#10;commitToIEWDelay=1&#10;commitToRenameDelay=1&#10;commitWidth=4&#10;cpu_id=&#45;1&#10;decodeToFetchDelay=1&#10;decodeToRenameDelay=1&#10;decodeWidth=4&#10;decoder=board.processor.cores.core.decoder&#10;dispatchWidth=4&#10;do_checkpoint_insts=true&#10;do_statistics_insts=true&#10;eventq_index=0&#10;fetchBufferSize=64&#10;fetchQueueSize=32&#10;fetchToDecodeDelay=1&#10;fetchTrapLatency=1&#10;fetchWidth=4&#10;forwardComSize=5&#10;fuPool=board.processor.cores.core.fuPool&#10;function_trace=false&#10;function_trace_start=0&#10;iewToCommitDelay=1&#10;iewToDecodeDelay=1&#10;iewToFetchDelay=1&#10;iewToRenameDelay=1&#10;interrupts=board.processor.cores.core.interrupts&#10;isa=board.processor.cores.core.isa&#10;issueToExecuteDelay=1&#10;issueWidth=4&#10;max_insts_all_threads=0&#10;max_insts_any_thread=0&#10;mmu=board.processor.cores.core.mmu&#10;&#10;eedsTSO=true&#10;&#10;umIQEntries=64&#10;&#10;umPhysCCRegs=1280&#10;&#10;umPhysFloatRegs=256&#10;&#10;umPhysIntRegs=256&#10;&#10;umPhysMatRegs=2&#10;&#10;umPhysVecPredRegs=32&#10;&#10;umPhysVecRegs=256&#10;&#10;umROBEntries=128&#10;&#10;umRobs=1&#10;&#10;umThreads=1&#10;power_gating_on_idle=false&#10;power_model=&#10;power_state=board.processor.cores.core.power_state&#10;progress_interval=0&#10;pwr_gating_latency=300&#10;&#13;enameToDecodeDelay=1&#10;&#13;enameToFetchDelay=1&#10;&#13;enameToIEWDelay=2&#10;&#13;enameToROBDelay=1&#10;&#13;enameWidth=4&#10;simpoint_start_insts=&#10;smtCommitPolicy=RoundRobin&#10;smtFetchPolicy=RoundRobin&#10;smtIQPolicy=Partitioned&#10;smtIQThreshold=100&#10;smtLSQPolicy=Partitioned&#10;smtLSQThreshold=100&#10;smtNumFetchingThreads=1&#10;smtROBPolicy=Partitioned&#10;smtROBThreshold=100&#10;socket_id=0&#10;squashWidth=8&#10;store_set_clear_period=250000&#10;switched_out=false&#10;syscallRetryLatency=10000&#10;system=board&#10;tracer=board.processor.cores.core.tracer&#10;trapLatency=13&#10;wbWidth=4&#10;workload=board.processor.cores.core.workload">
<path fill="#bbc6d9" stroke="#000000" d="M384,-330C384,-330 1324,-330 1324,-330 1330,-330 1336,-336 1336,-342 1336,-342 1336,-570 1336,-570 1336,-576 1330,-582 1324,-582 1324,-582 384,-582 384,-582 378,-582 372,-576 372,-570 372,-570 372,-342 372,-342 372,-336 378,-330 384,-330"/>
<text text-anchor="middle" x="854" y="-566.8" font-family="Arial" font-size="14.00" fill="#000000">core </text>
<text text-anchor="middle" x="854" y="-551.8" font-family="Arial" font-size="14.00" fill="#000000">: X86O3CPU</text>
</a>
</g>
</g>
<g id="clust9" class="cluster">
<title>cluster_board_processor_cores_core_mmu</title>
<g id="a_clust9"><a xlink:title="dtb=board.processor.cores.core.mmu.dtb&#10;eventq_index=0&#10;itb=board.processor.cores.core.mmu.itb">
<path fill="#bab6ae" stroke="#000000" d="M726,-338C726,-338 1092,-338 1092,-338 1098,-338 1104,-344 1104,-350 1104,-350 1104,-524 1104,-524 1104,-530 1098,-536 1092,-536 1092,-536 726,-536 726,-536 720,-536 714,-530 714,-524 714,-524 714,-350 714,-350 714,-344 720,-338 726,-338"/>
<text text-anchor="middle" x="909" y="-520.8" font-family="Arial" font-size="14.00" fill="#000000">mmu </text>
<text text-anchor="middle" x="909" y="-505.8" font-family="Arial" font-size="14.00" fill="#000000">: X86MMU</text>
</a>
</g>
</g>
<g id="clust10" class="cluster">
<title>cluster_board_processor_cores_core_mmu_itb</title>
<g id="a_clust10"><a xlink:title="entry_type=instruction&#10;eventq_index=0&#10;&#10;ext_level=Null&#10;size=64&#10;system=board&#10;walker=board.processor.cores.core.mmu.itb.walker">
<path fill="#9f9c95" stroke="#000000" d="M925,-346C925,-346 1084,-346 1084,-346 1090,-346 1096,-352 1096,-358 1096,-358 1096,-478 1096,-478 1096,-484 1090,-490 1084,-490 1084,-490 925,-490 925,-490 919,-490 913,-484 913,-478 913,-478 913,-358 913,-358 913,-352 919,-346 925,-346"/>
<text text-anchor="middle" x="1004.5" y="-474.8" font-family="Arial" font-size="14.00" fill="#000000">itb </text>
<text text-anchor="middle" x="1004.5" y="-459.8" font-family="Arial" font-size="14.00" fill="#000000">: X86TLB</text>
</a>
</g>
</g>
<g id="clust11" class="cluster">
<title>cluster_board_processor_cores_core_mmu_itb_walker</title>
<g id="a_clust11"><a xlink:title="clk_domain=board.clk_domain&#10;eventq_index=0&#10;&#10;um_squash_per_cycle=4&#10;power_model=&#10;power_state=board.processor.cores.core.mmu.itb.walker.power_state&#10;system=board">
<path fill="#84827c" stroke="#000000" d="M933,-354C933,-354 1076,-354 1076,-354 1082,-354 1088,-360 1088,-366 1088,-366 1088,-432 1088,-432 1088,-438 1082,-444 1076,-444 1076,-444 933,-444 933,-444 927,-444 921,-438 921,-432 921,-432 921,-366 921,-366 921,-360 927,-354 933,-354"/>
<text text-anchor="middle" x="1004.5" y="-428.8" font-family="Arial" font-size="14.00" fill="#000000">walker </text>
<text text-anchor="middle" x="1004.5" y="-413.8" font-family="Arial" font-size="14.00" fill="#000000">: X86PagetableWalker</text>
</a>
</g>
</g>
<g id="clust13" class="cluster">
<title>cluster_board_processor_cores_core_mmu_dtb</title>
<g id="a_clust13"><a xlink:title="entry_type=data&#10;eventq_index=0&#10;&#10;ext_level=Null&#10;size=64&#10;system=board&#10;walker=board.processor.cores.core.mmu.dtb.walker">
<path fill="#9f9c95" stroke="#000000" d="M734,-346C734,-346 893,-346 893,-346 899,-346 905,-352 905,-358 905,-358 905,-478 905,-478 905,-484 899,-490 893,-490 893,-490 734,-490 734,-490 728,-490 722,-484 722,-478 722,-478 722,-358 722,-358 722,-352 728,-346 734,-346"/>
<text text-anchor="middle" x="813.5" y="-474.8" font-family="Arial" font-size="14.00" fill="#000000">dtb </text>
<text text-anchor="middle" x="813.5" y="-459.8" font-family="Arial" font-size="14.00" fill="#000000">: X86TLB</text>
</a>
</g>
</g>
<g id="clust14" class="cluster">
<title>cluster_board_processor_cores_core_mmu_dtb_walker</title>
<g id="a_clust14"><a xlink:title="clk_domain=board.clk_domain&#10;eventq_index=0&#10;&#10;um_squash_per_cycle=4&#10;power_model=&#10;power_state=board.processor.cores.core.mmu.dtb.walker.power_state&#10;system=board">
<path fill="#84827c" stroke="#000000" d="M742,-354C742,-354 885,-354 885,-354 891,-354 897,-360 897,-366 897,-366 897,-432 897,-432 897,-438 891,-444 885,-444 885,-444 742,-444 742,-444 736,-444 730,-438 730,-432 730,-432 730,-366 730,-366 730,-360 736,-354 742,-354"/>
<text text-anchor="middle" x="813.5" y="-428.8" font-family="Arial" font-size="14.00" fill="#000000">walker </text>
<text text-anchor="middle" x="813.5" y="-413.8" font-family="Arial" font-size="14.00" fill="#000000">: X86PagetableWalker</text>
</a>
</g>
</g>
<g id="clust112" class="cluster">
<title>cluster_board_processor_cores_core_interrupts</title>
<g id="a_clust112"><a xlink:title="clk_domain=board.processor.cores.core.interrupts.clk_domain&#10;eventq_index=0&#10;int_latency=1000&#10;pio_latency=100000&#10;system=board">
<path fill="#bab6ae" stroke="#000000" d="M392,-354C392,-354 694,-354 694,-354 700,-354 706,-360 706,-366 706,-366 706,-432 706,-432 706,-438 700,-444 694,-444 694,-444 392,-444 392,-444 386,-444 380,-438 380,-432 380,-432 380,-366 380,-366 380,-360 386,-354 392,-354"/>
<text text-anchor="middle" x="543" y="-428.8" font-family="Arial" font-size="14.00" fill="#000000">interrupts </text>
<text text-anchor="middle" x="543" y="-413.8" font-family="Arial" font-size="14.00" fill="#000000">: X86LocalApic</text>
</a>
</g>
</g>
<g id="clust114" class="cluster">
<title>cluster_board_memory</title>
<g id="a_clust114"><a xlink:title="eventq_index=0&#10;thermal_domain=Null">
<path fill="#bab6ae" stroke="#000000" d="M146,-346C146,-346 336,-346 336,-346 342,-346 348,-352 348,-358 348,-358 348,-478 348,-478 348,-484 342,-490 336,-490 336,-490 146,-490 146,-490 140,-490 134,-484 134,-478 134,-478 134,-358 134,-358 134,-352 140,-346 146,-346"/>
<text text-anchor="middle" x="241" y="-474.8" font-family="Arial" font-size="14.00" fill="#000000">memory </text>
<text text-anchor="middle" x="241" y="-459.8" font-family="Arial" font-size="14.00" fill="#000000">: ChanneledMemory</text>
</a>
</g>
</g>
<g id="clust115" class="cluster">
<title>cluster_board_memory_mem_ctrl0</title>
<g id="a_clust115"><a xlink:title="clk_domain=board.clk_domain&#10;command_window=10000&#10;disable_sanity_check=false&#10;dram=board.memory.mem_ctrl0.dram&#10;eventq_index=0&#10;mem_sched_policy=frfcfs&#10;min_reads_per_switch=16&#10;min_writes_per_switch=16&#10;power_model=&#10;power_state=board.memory.mem_ctrl0.power_state&#10;qos_policy=Null&#10;qos_priorities=1&#10;qos_priority_escalation=false&#10;qos_q_policy=fifo&#10;qos_requestors= &#160;&#160;&#160;&#160;&#160;&#160;&#160;&#160;&#160;&#160;&#160;&#160;&#160;&#160;&#10;qos_syncro_scheduler=false&#10;qos_turnaround_policy=Null&#10;static_backend_latency=10000&#10;static_frontend_latency=10000&#10;system=board&#10;write_high_thresh_perc=85&#10;write_low_thresh_perc=50">
<path fill="#9f9c95" stroke="#000000" d="M257,-354C257,-354 328,-354 328,-354 334,-354 340,-360 340,-366 340,-366 340,-432 340,-432 340,-438 334,-444 328,-444 328,-444 257,-444 257,-444 251,-444 245,-438 245,-432 245,-432 245,-366 245,-366 245,-360 251,-354 257,-354"/>
<text text-anchor="middle" x="292.5" y="-428.8" font-family="Arial" font-size="14.00" fill="#000000">mem_ctrl0 </text>
<text text-anchor="middle" x="292.5" y="-413.8" font-family="Arial" font-size="14.00" fill="#000000">: MemCtrl</text>
</a>
</g>
</g>
<g id="clust119" class="cluster">
<title>cluster_board_memory_mem_ctrl1</title>
<g id="a_clust119"><a xlink:title="clk_domain=board.clk_domain&#10;command_window=10000&#10;disable_sanity_check=false&#10;dram=board.memory.mem_ctrl1.dram&#10;eventq_index=0&#10;mem_sched_policy=frfcfs&#10;min_reads_per_switch=16&#10;min_writes_per_switch=16&#10;power_model=&#10;power_state=board.memory.mem_ctrl1.power_state&#10;qos_policy=Null&#10;qos_priorities=1&#10;qos_priority_escalation=false&#10;qos_q_policy=fifo&#10;qos_requestors= &#160;&#160;&#160;&#160;&#160;&#160;&#160;&#160;&#160;&#160;&#160;&#160;&#160;&#160;&#10;qos_syncro_scheduler=false&#10;qos_turnaround_policy=Null&#10;static_backend_latency=10000&#10;static_frontend_latency=10000&#10;system=board&#10;write_high_thresh_perc=85&#10;write_low_thresh_perc=50">
<path fill="#9f9c95" stroke="#000000" d="M154,-354C154,-354 225,-354 225,-354 231,-354 237,-360 237,-366 237,-366 237,-432 237,-432 237,-438 231,-444 225,-444 225,-444 154,-444 154,-444 148,-444 142,-438 142,-432 142,-432 142,-366 142,-366 142,-360 148,-354 154,-354"/>
<text text-anchor="middle" x="189.5" y="-428.8" font-family="Arial" font-size="14.00" fill="#000000">mem_ctrl1 </text>
<text text-anchor="middle" x="189.5" y="-413.8" font-family="Arial" font-size="14.00" fill="#000000">: MemCtrl</text>
</a>
</g>
</g>
<g id="clust123" class="cluster">
<title>cluster_board_cache_hierarchy</title>
<g id="a_clust123"><a xlink:title="eventq_index=0&#10;thermal_domain=Null">
<path fill="#bab6ae" stroke="#000000" d="M345,-24C345,-24 1326,-24 1326,-24 1332,-24 1338,-30 1338,-36 1338,-36 1338,-294 1338,-294 1338,-300 1332,-306 1326,-306 1326,-306 345,-306 345,-306 339,-306 333,-300 333,-294 333,-294 333,-36 333,-36 333,-30 339,-24 345,-24"/>
<text text-anchor="middle" x="835.5" y="-290.8" font-family="Arial" font-size="14.00" fill="#000000">cache_hierarchy </text>
<text text-anchor="middle" x="835.5" y="-275.8" font-family="Arial" font-size="14.00" fill="#000000">: ConfigurableL2CacheHierarchy</text>
</a>
</g>
</g>
<g id="clust124" class="cluster">
<title>cluster_board_cache_hierarchy_membus</title>
<g id="a_clust124"><a xlink:title="clk_domain=board.clk_domain&#10;eventq_index=0&#10;forward_latency=4&#10;frontend_latency=3&#10;header_latency=1&#10;max_outstanding_snoops=512&#10;max_routing_table_size=512&#10;point_of_coherency=true&#10;point_of_unification=true&#10;power_model=&#10;power_state=board.cache_hierarchy.membus.power_state&#10;&#13;esponse_latency=2&#10;snoop_filter=board.cache_hierarchy.membus.snoop_filter&#10;snoop_response_latency=4&#10;system=board&#10;use_default_range=false&#10;width=64">
<path fill="#6f798c" stroke="#000000" d="M353,-32C353,-32 697,-32 697,-32 703,-32 709,-38 709,-44 709,-44 709,-248 709,-248 709,-254 703,-260 697,-260 697,-260 353,-260 353,-260 347,-260 341,-254 341,-248 341,-248 341,-44 341,-44 341,-38 347,-32 353,-32"/>
<text text-anchor="middle" x="525" y="-244.8" font-family="Arial" font-size="14.00" fill="#000000">membus </text>
<text text-anchor="middle" x="525" y="-229.8" font-family="Arial" font-size="14.00" fill="#000000">: SystemXBar</text>
</a>
</g>
</g>
<g id="clust127" class="cluster">
<title>cluster_board_cache_hierarchy_membus_badaddr_responder</title>
<g id="a_clust127"><a xlink:title="clk_domain=board.clk_domain&#10;eventq_index=0&#10;fake_mem=false&#10;pio_addr=0&#10;pio_latency=100000&#10;pio_size=8&#10;power_model=&#10;power_state=board.cache_hierarchy.membus.badaddr_responder.power_state&#10;&#13;et_bad_addr=true&#10;&#13;et_data16=65535&#10;&#13;et_data32=4294967295&#10;&#13;et_data64=18446744073709551615&#10;&#13;et_data8=255&#10;system=board&#10;update_data=false&#10;warn_access=">
<path fill="#c7a793" stroke="#000000" d="M361,-40C361,-40 494,-40 494,-40 500,-40 506,-46 506,-52 506,-52 506,-118 506,-118 506,-124 500,-130 494,-130 494,-130 361,-130 361,-130 355,-130 349,-124 349,-118 349,-118 349,-52 349,-52 349,-46 355,-40 361,-40"/>
<text text-anchor="middle" x="427.5" y="-114.8" font-family="Arial" font-size="14.00" fill="#000000">badaddr_responder </text>
<text text-anchor="middle" x="427.5" y="-99.8" font-family="Arial" font-size="14.00" fill="#000000">: BadAddr</text>
</a>
</g>
</g>
<g id="clust129" class="cluster">
<title>cluster_board_cache_hierarchy_l2buses</title>
<g id="a_clust129"><a xlink:title="clk_domain=board.clk_domain&#10;eventq_index=0&#10;forward_latency=0&#10;frontend_latency=1&#10;header_latency=1&#10;max_outstanding_snoops=512&#10;max_routing_table_size=512&#10;point_of_coherency=false&#10;point_of_unification=true&#10;power_model=&#10;power_state=board.cache_hierarchy.l2buses.power_state&#10;&#13;esponse_latency=1&#10;snoop_filter=board.cache_hierarchy.l2buses.snoop_filter&#10;snoop_response_latency=1&#10;system=board&#10;use_default_range=false&#10;width=32">
<path fill="#6f798c" stroke="#000000" d="M808,-170C808,-170 1068,-170 1068,-170 1074,-170 1080,-176 1080,-182 1080,-182 1080,-248 1080,-248 1080,-254 1074,-260 1068,-260 1068,-260 808,-260 808,-260 802,-260 796,-254 796,-248 796,-248 796,-182 796,-182 796,-176 802,-170 808,-170"/>
<text text-anchor="middle" x="938" y="-244.8" font-family="Arial" font-size="14.00" fill="#000000">l2buses </text>
<text text-anchor="middle" x="938" y="-229.8" font-family="Arial" font-size="14.00" fill="#000000">: L2XBar</text>
</a>
</g>
</g>
<g id="clust132" class="cluster">
<title>cluster_board_cache_hierarchy_l2&#45;cache&#45;0</title>
<g id="a_clust132"><a xlink:title="addr_ranges=0:18446744073709551615&#10;assoc=16&#10;clk_domain=board.clk_domain&#10;clusivity=mostly_incl&#10;compressor=Null&#10;data_latency=10&#10;demand_mshr_reserve=1&#10;eventq_index=0&#10;is_read_only=false&#10;max_miss_count=0&#10;move_contractions=true&#10;mshrs=20&#10;partitioning_manager=Null&#10;power_model=&#10;power_state=board.cache_hierarchy.l2&#45;cache&#45;0.power_state&#10;prefetcher=board.cache_hierarchy.l2&#45;cache&#45;0.prefetcher&#10;&#13;eplace_expansions=true&#10;&#13;eplacement_policy=board.cache_hierarchy.l2&#45;cache&#45;0.replacement_policy&#10;&#13;esponse_latency=1&#10;sequential_access=false&#10;size=262144&#10;system=board&#10;tag_latency=10&#10;tags=board.cache_hierarchy.l2&#45;cache&#45;0.tags&#10;tgts_per_mshr=12&#10;warmup_percentage=0&#10;write_allocator=Null&#10;write_buffers=8&#10;writeback_clean=false">
<path fill="#9f9c95" stroke="#000000" d="M729,-40C729,-40 904,-40 904,-40 910,-40 916,-46 916,-52 916,-52 916,-118 916,-118 916,-124 910,-130 904,-130 904,-130 729,-130 729,-130 723,-130 717,-124 717,-118 717,-118 717,-52 717,-52 717,-46 723,-40 729,-40"/>
<text text-anchor="middle" x="816.5" y="-114.8" font-family="Arial" font-size="14.00" fill="#000000">l2&#45;cache&#45;0 </text>
<text text-anchor="middle" x="816.5" y="-99.8" font-family="Arial" font-size="14.00" fill="#000000">: L2Cache</text>
</a>
</g>
</g>
<g id="clust142" class="cluster">
<title>cluster_board_cache_hierarchy_l1i&#45;cache&#45;0</title>
<g id="a_clust142"><a xlink:title="addr_ranges=0:18446744073709551615&#10;assoc=8&#10;clk_domain=board.clk_domain&#10;clusivity=mostly_incl&#10;compressor=Null&#10;data_latency=1&#10;demand_mshr_reserve=1&#10;eventq_index=0&#10;is_read_only=false&#10;max_miss_count=0&#10;move_contractions=true&#10;mshrs=16&#10;partitioning_manager=Null&#10;power_model=&#10;power_state=board.cache_hierarchy.l1i&#45;cache&#45;0.power_state&#10;prefetcher=board.cache_hierarchy.l1i&#45;cache&#45;0.prefetcher&#10;&#13;eplace_expansions=true&#10;&#13;eplacement_policy=board.cache_hierarchy.l1i&#45;cache&#45;0.replacement_policy&#10;&#13;esponse_latency=1&#10;sequential_access=false&#10;size=32768&#10;system=board&#10;tag_latency=1&#10;tags=board.cache_hierarchy.l1i&#45;cache&#45;0.tags&#10;tgts_per_mshr=20&#10;warmup_percentage=0&#10;write_allocator=Null&#10;write_buffers=8&#10;writeback_clean=true">
<path fill="#9f9c95" stroke="#000000" d="M936,-40C936,-40 1111,-40 1111,-40 1117,-40 1123,-46 1123,-52 1123,-52 1123,-118 1123,-118 1123,-124 1117,-130 1111,-130 1111,-130 936,-130 936,-130 930,-130 924,-124 924,-118 924,-118 924,-52 924,-52 924,-46 930,-40 936,-40"/>
<text text-anchor="middle" x="1023.5" y="-114.8" font-family="Arial" font-size="14.00" fill="#000000">l1i&#45;cache&#45;0 </text>
<text text-anchor="middle" x="1023.5" y="-99.8" font-family="Arial" font-size="14.00" fill="#000000">: L1ICache</text>
</a>
</g>
</g>
<g id="clust152" class="cluster">
<title>cluster_board_cache_hierarchy_l1d&#45;cache&#45;0</title>
<g id="a_clust152"><a xlink:title="addr_ranges=0:18446744073709551615&#10;assoc=8&#10;clk_domain=board.clk_domain&#10;clusivity=mostly_incl&#10;compressor=Null&#10;data_latency=1&#10;demand_mshr_reserve=1&#10;eventq_index=0&#10;is_read_only=false&#10;max_miss_count=0&#10;move_contractions=true&#10;mshrs=16&#10;partitioning_manager=Null&#10;power_model=&#10;power_state=board.cache_hierarchy.l1d&#45;cache&#45;0.power_state&#10;prefetcher=board.cache_hierarchy.l1d&#45;cache&#45;0.prefetcher&#10;&#13;eplace_expansions=true&#10;&#13;eplacement_policy=board.cache_hierarchy.l1d&#45;cache&#45;0.replacement_policy&#10;&#13;esponse_latency=1&#10;sequential_access=false&#10;size=32768&#10;system=board&#10;tag_latency=1&#10;tags=board.cache_hierarchy.l1d&#45;cache&#45;0.tags&#10;tgts_per_mshr=20&#10;warmup_percentage=0&#10;write_allocator=Null&#10;write_buffers=8&#10;writeback_clean=false">
<path fill="#9f9c95" stroke="#000000" d="M1143,-40C1143,-40 1318,-40 1318,-40 1324,-40 1330,-46 1330,-52 1330,-52 1330,-118 1330,-118 1330,-124 1324,-130 1318,-130 1318,-130 1143,-130 1143,-130 1137,-130 1131,-124 1131,-118 1131,-118 1131,-52 1131,-52 1131,-46 1137,-40 1143,-40"/>
<text text-anchor="middle" x="1230.5" y="-114.8" font-family="Arial" font-size="14.00" fill="#000000">l1d&#45;cache&#45;0 </text>
<text text-anchor="middle" x="1230.5" y="-99.8" font-family="Arial" font-size="14.00" fill="#000000">: L1DCache</text>
</a>
</g>
</g>
<!-- board_system_port -->
<g id="node1" class="node">
<title>board_system_port</title>
<path fill="#b6b8bc" stroke="#000000" d="M114,-398C114,-398 36,-398 36,-398 30,-398 24,-392 24,-386 24,-386 24,-374 24,-374 24,-368 30,-362 36,-362 36,-362 114,-362 114,-362 120,-362 126,-368 126,-374 126,-374 126,-386 126,-386 126,-392 120,-398 114,-398"/>
<text text-anchor="middle" x="75" y="-376.3" font-family="Arial" font-size="14.00" fill="#000000">system_port</text>
</g>
<!-- board_cache_hierarchy_membus_cpu_side_ports -->
<g id="node11" class="node">
<title>board_cache_hierarchy_membus_cpu_side_ports</title>
<path fill="#586070" stroke="#000000" d="M689,-214C689,-214 593,-214 593,-214 587,-214 581,-208 581,-202 581,-202 581,-190 581,-190 581,-184 587,-178 593,-178 593,-178 689,-178 689,-178 695,-178 701,-184 701,-190 701,-190 701,-202 701,-202 701,-208 695,-214 689,-214"/>
<text text-anchor="middle" x="641" y="-192.3" font-family="Arial" font-size="14.00" fill="#000000">cpu_side_ports</text>
</g>
<!-- board_system_port&#45;&gt;board_cache_hierarchy_membus_cpu_side_ports -->
<g id="edge1" class="edge">
<title>board_system_port&#45;&gt;board_cache_hierarchy_membus_cpu_side_ports</title>
<path fill="none" stroke="black" d="M85.82,-361.77C96.8,-346.05 115.37,-323.83 138,-314 160.12,-304.39 550.98,-317.82 572,-306 603.36,-288.36 622.54,-249.92 632.47,-223.75"/>
<polygon fill="black" stroke="black" points="635.87,-224.64 635.94,-214.05 629.28,-222.28 635.87,-224.64"/>
</g>
<!-- board_processor_cores_core_icache_port -->
<g id="node2" class="node">
<title>board_processor_cores_core_icache_port</title>
<path fill="#959ead" stroke="#000000" d="M1196,-398C1196,-398 1124,-398 1124,-398 1118,-398 1112,-392 1112,-386 1112,-386 1112,-374 1112,-374 1112,-368 1118,-362 1124,-362 1124,-362 1196,-362 1196,-362 1202,-362 1208,-368 1208,-374 1208,-374 1208,-386 1208,-386 1208,-392 1202,-398 1196,-398"/>
<text text-anchor="middle" x="1160" y="-376.3" font-family="Arial" font-size="14.00" fill="#000000">icache_port</text>
</g>
<!-- board_cache_hierarchy_l1i&#45;cache&#45;0_cpu_side -->
<g id="node19" class="node">
<title>board_cache_hierarchy_l1i&#45;cache&#45;0_cpu_side</title>
<path fill="#7f7c77" stroke="#000000" d="M1102.5,-84C1102.5,-84 1049.5,-84 1049.5,-84 1043.5,-84 1037.5,-78 1037.5,-72 1037.5,-72 1037.5,-60 1037.5,-60 1037.5,-54 1043.5,-48 1049.5,-48 1049.5,-48 1102.5,-48 1102.5,-48 1108.5,-48 1114.5,-54 1114.5,-60 1114.5,-60 1114.5,-72 1114.5,-72 1114.5,-78 1108.5,-84 1102.5,-84"/>
<text text-anchor="middle" x="1076" y="-62.3" font-family="Arial" font-size="14.00" fill="#000000">cpu_side</text>
</g>
<!-- board_processor_cores_core_icache_port&#45;&gt;board_cache_hierarchy_l1i&#45;cache&#45;0_cpu_side -->
<g id="edge2" class="edge">
<title>board_processor_cores_core_icache_port&#45;&gt;board_cache_hierarchy_l1i&#45;cache&#45;0_cpu_side</title>
<path fill="none" stroke="black" d="M1155.36,-361.78C1141.48,-310.22 1100.16,-156.74 1083.29,-94.09"/>
<polygon fill="black" stroke="black" points="1086.6,-92.91 1080.62,-84.17 1079.84,-94.73 1086.6,-92.91"/>
</g>
<!-- board_processor_cores_core_dcache_port -->
<g id="node3" class="node">
<title>board_processor_cores_core_dcache_port</title>
<path fill="#959ead" stroke="#000000" d="M1315.5,-398C1315.5,-398 1238.5,-398 1238.5,-398 1232.5,-398 1226.5,-392 1226.5,-386 1226.5,-386 1226.5,-374 1226.5,-374 1226.5,-368 1232.5,-362 1238.5,-362 1238.5,-362 1315.5,-362 1315.5,-362 1321.5,-362 1327.5,-368 1327.5,-374 1327.5,-374 1327.5,-386 1327.5,-386 1327.5,-392 1321.5,-398 1315.5,-398"/>
<text text-anchor="middle" x="1277" y="-376.3" font-family="Arial" font-size="14.00" fill="#000000">dcache_port</text>
</g>
<!-- board_cache_hierarchy_l1d&#45;cache&#45;0_cpu_side -->
<g id="node21" class="node">
<title>board_cache_hierarchy_l1d&#45;cache&#45;0_cpu_side</title>
<path fill="#7f7c77" stroke="#000000" d="M1309.5,-84C1309.5,-84 1256.5,-84 1256.5,-84 1250.5,-84 1244.5,-78 1244.5,-72 1244.5,-72 1244.5,-60 1244.5,-60 1244.5,-54 1250.5,-48 1256.5,-48 1256.5,-48 1309.5,-48 1309.5,-48 1315.5,-48 1321.5,-54 1321.5,-60 1321.5,-60 1321.5,-72 1321.5,-72 1321.5,-78 1315.5,-84 1309.5,-84"/>
<text text-anchor="middle" x="1283" y="-62.3" font-family="Arial" font-size="14.00" fill="#000000">cpu_side</text>
</g>
<!-- board_processor_cores_core_dcache_port&#45;&gt;board_cache_hierarchy_l1d&#45;cache&#45;0_cpu_side -->
<g id="edge3" class="edge">
<title>board_processor_cores_core_dcache_port&#45;&gt;board_cache_hierarchy_l1d&#45;cache&#45;0_cpu_side</title>
<path fill="none" stroke="black" d="M1277.33,-361.78C1278.32,-310.32 1281.26,-157.37 1282.47,-94.48"/>
<polygon fill="black" stroke="black" points="1285.98,-94.23 1282.67,-84.17 1278.98,-94.1 1285.98,-94.23"/>
</g>
<!-- board_processor_cores_core_mmu_itb_walker_port -->
<g id="node4" class="node">
<title>board_processor_cores_core_mmu_itb_walker_port</title>
<path fill="#6a6863" stroke="#000000" d="M971,-398C971,-398 941,-398 941,-398 935,-398 929,-392 929,-386 929,-386 929,-374 929,-374 929,-368 935,-362 941,-362 941,-362 971,-362 971,-362 977,-362 983,-368 983,-374 983,-374 983,-386 983,-386 983,-392 977,-398 971,-398"/>
<text text-anchor="middle" x="956" y="-376.3" font-family="Arial" font-size="14.00" fill="#000000">port</text>
</g>
<!-- board_processor_cores_core_mmu_itb_walker_port&#45;&gt;board_cache_hierarchy_membus_cpu_side_ports -->
<g id="edge4" class="edge">
<title>board_processor_cores_core_mmu_itb_walker_port&#45;&gt;board_cache_hierarchy_membus_cpu_side_ports</title>
<path fill="none" stroke="black" d="M946.79,-361.78C937.48,-346.31 921.55,-324.46 901,-314 879.36,-302.98 814.82,-314.31 792,-306 741.46,-287.59 692.84,-247.08 664.99,-220.96"/>
<polygon fill="black" stroke="black" points="667.35,-218.38 657.7,-214.01 662.52,-223.45 667.35,-218.38"/>
</g>
<!-- board_processor_cores_core_mmu_dtb_walker_port -->
<g id="node5" class="node">
<title>board_processor_cores_core_mmu_dtb_walker_port</title>
<path fill="#6a6863" stroke="#000000" d="M780,-398C780,-398 750,-398 750,-398 744,-398 738,-392 738,-386 738,-386 738,-374 738,-374 738,-368 744,-362 750,-362 750,-362 780,-362 780,-362 786,-362 792,-368 792,-374 792,-374 792,-386 792,-386 792,-392 786,-398 780,-398"/>
<text text-anchor="middle" x="765" y="-376.3" font-family="Arial" font-size="14.00" fill="#000000">port</text>
</g>
<!-- board_processor_cores_core_mmu_dtb_walker_port&#45;&gt;board_cache_hierarchy_membus_cpu_side_ports -->
<g id="edge5" class="edge">
<title>board_processor_cores_core_mmu_dtb_walker_port&#45;&gt;board_cache_hierarchy_membus_cpu_side_ports</title>
<path fill="none" stroke="black" d="M753.33,-361.88C731.46,-329.76 684.16,-260.34 658.46,-222.63"/>
<polygon fill="black" stroke="black" points="661.25,-220.5 652.72,-214.21 655.46,-224.44 661.25,-220.5"/>
</g>
<!-- board_processor_cores_core_interrupts_int_requestor -->
<g id="node6" class="node">
<title>board_processor_cores_core_interrupts_int_requestor</title>
<path fill="#94918b" stroke="#000000" d="M686,-398C686,-398 602,-398 602,-398 596,-398 590,-392 590,-386 590,-386 590,-374 590,-374 590,-368 596,-362 602,-362 602,-362 686,-362 686,-362 692,-362 698,-368 698,-374 698,-374 698,-386 698,-386 698,-392 692,-398 686,-398"/>
<text text-anchor="middle" x="644" y="-376.3" font-family="Arial" font-size="14.00" fill="#000000">int_requestor</text>
</g>
<!-- board_processor_cores_core_interrupts_int_requestor&#45;&gt;board_cache_hierarchy_membus_cpu_side_ports -->
<g id="edge6" class="edge">
<title>board_processor_cores_core_interrupts_int_requestor&#45;&gt;board_cache_hierarchy_membus_cpu_side_ports</title>
<path fill="none" stroke="black" d="M643.72,-361.88C643.2,-330.31 642.08,-262.67 641.45,-224.57"/>
<polygon fill="black" stroke="black" points="644.95,-224.15 641.28,-214.21 637.95,-224.27 644.95,-224.15"/>
</g>
<!-- board_processor_cores_core_interrupts_int_responder -->
<g id="node7" class="node">
<title>board_processor_cores_core_interrupts_int_responder</title>
<path fill="#94918b" stroke="#000000" d="M560,-398C560,-398 472,-398 472,-398 466,-398 460,-392 460,-386 460,-386 460,-374 460,-374 460,-368 466,-362 472,-362 472,-362 560,-362 560,-362 566,-362 572,-368 572,-374 572,-374 572,-386 572,-386 572,-392 566,-398 560,-398"/>
<text text-anchor="middle" x="516" y="-376.3" font-family="Arial" font-size="14.00" fill="#000000">int_responder</text>
</g>
<!-- board_cache_hierarchy_membus_mem_side_ports -->
<g id="node12" class="node">
<title>board_cache_hierarchy_membus_mem_side_ports</title>
<path fill="#586070" stroke="#000000" d="M551,-214C551,-214 445,-214 445,-214 439,-214 433,-208 433,-202 433,-202 433,-190 433,-190 433,-184 439,-178 445,-178 445,-178 551,-178 551,-178 557,-178 563,-184 563,-190 563,-190 563,-202 563,-202 563,-208 557,-214 551,-214"/>
<text text-anchor="middle" x="498" y="-192.3" font-family="Arial" font-size="14.00" fill="#000000">mem_side_ports</text>
</g>
<!-- board_processor_cores_core_interrupts_int_responder&#45;&gt;board_cache_hierarchy_membus_mem_side_ports -->
<g id="edge7" class="edge">
<title>board_processor_cores_core_interrupts_int_responder&#45;&gt;board_cache_hierarchy_membus_mem_side_ports</title>
<path fill="none" stroke="black" d="M513.28,-351.54C509.52,-313.49 502.83,-245.85 499.7,-214.21"/>
<polygon fill="black" stroke="black" points="509.84,-352.27 514.31,-361.88 516.81,-351.58 509.84,-352.27"/>
</g>
<!-- board_processor_cores_core_interrupts_pio -->
<g id="node8" class="node">
<title>board_processor_cores_core_interrupts_pio</title>
<path fill="#94918b" stroke="#000000" d="M430,-398C430,-398 400,-398 400,-398 394,-398 388,-392 388,-386 388,-386 388,-374 388,-374 388,-368 394,-362 400,-362 400,-362 430,-362 430,-362 436,-362 442,-368 442,-374 442,-374 442,-386 442,-386 442,-392 436,-398 430,-398"/>
<text text-anchor="middle" x="415" y="-376.3" font-family="Arial" font-size="14.00" fill="#000000">pio</text>
</g>
<!-- board_processor_cores_core_interrupts_pio&#45;&gt;board_cache_hierarchy_membus_mem_side_ports -->
<g id="edge8" class="edge">
<title>board_processor_cores_core_interrupts_pio&#45;&gt;board_cache_hierarchy_membus_mem_side_ports</title>
<path fill="none" stroke="black" d="M427.08,-352.51C444.35,-314.65 475.6,-246.12 490.15,-214.21"/>
<polygon fill="black" stroke="black" points="423.77,-351.33 422.81,-361.88 430.14,-354.23 423.77,-351.33"/>
</g>
<!-- board_memory_mem_ctrl0_port -->
<g id="node9" class="node">
<title>board_memory_mem_ctrl0_port</title>
<path fill="#7f7c77" stroke="#000000" d="M320,-398C320,-398 290,-398 290,-398 284,-398 278,-392 278,-386 278,-386 278,-374 278,-374 278,-368 284,-362 290,-362 290,-362 320,-362 320,-362 326,-362 332,-368 332,-374 332,-374 332,-386 332,-386 332,-392 326,-398 320,-398"/>
<text text-anchor="middle" x="305" y="-376.3" font-family="Arial" font-size="14.00" fill="#000000">port</text>
</g>
<!-- board_memory_mem_ctrl0_port&#45;&gt;board_cache_hierarchy_membus_mem_side_ports -->
<g id="edge9" class="edge">
<title>board_memory_mem_ctrl0_port&#45;&gt;board_cache_hierarchy_membus_mem_side_ports</title>
<path fill="none" stroke="black" d="M325.24,-354.43C338.25,-340.33 356.35,-323.57 376,-314 395.44,-304.53 405.79,-317.67 424,-306 458.67,-283.79 481.17,-238.93 491.47,-214.24"/>
<polygon fill="black" stroke="black" points="322.6,-352.13 318.56,-361.93 327.82,-356.79 322.6,-352.13"/>
</g>
<!-- board_memory_mem_ctrl1_port -->
<g id="node10" class="node">
<title>board_memory_mem_ctrl1_port</title>
<path fill="#7f7c77" stroke="#000000" d="M217,-398C217,-398 187,-398 187,-398 181,-398 175,-392 175,-386 175,-386 175,-374 175,-374 175,-368 181,-362 187,-362 187,-362 217,-362 217,-362 223,-362 229,-368 229,-374 229,-374 229,-386 229,-386 229,-392 223,-398 217,-398"/>
<text text-anchor="middle" x="202" y="-376.3" font-family="Arial" font-size="14.00" fill="#000000">port</text>
</g>
<!-- board_memory_mem_ctrl1_port&#45;&gt;board_cache_hierarchy_membus_mem_side_ports -->
<g id="edge10" class="edge">
<title>board_memory_mem_ctrl1_port&#45;&gt;board_cache_hierarchy_membus_mem_side_ports</title>
<path fill="none" stroke="black" d="M211,-352.15C217.15,-338.24 226.81,-322.45 241,-314 275.98,-293.18 388.46,-325.84 424,-306 460.15,-285.82 482.17,-239.69 491.98,-214.39"/>
<polygon fill="black" stroke="black" points="207.6,-351.22 207.13,-361.8 214.1,-353.82 207.6,-351.22"/>
</g>
<!-- board_cache_hierarchy_l2&#45;cache&#45;0_mem_side -->
<g id="node18" class="node">
<title>board_cache_hierarchy_l2&#45;cache&#45;0_mem_side</title>
<path fill="#7f7c77" stroke="#000000" d="M800.5,-84C800.5,-84 737.5,-84 737.5,-84 731.5,-84 725.5,-78 725.5,-72 725.5,-72 725.5,-60 725.5,-60 725.5,-54 731.5,-48 737.5,-48 737.5,-48 800.5,-48 800.5,-48 806.5,-48 812.5,-54 812.5,-60 812.5,-60 812.5,-72 812.5,-72 812.5,-78 806.5,-84 800.5,-84"/>
<text text-anchor="middle" x="769" y="-62.3" font-family="Arial" font-size="14.00" fill="#000000">mem_side</text>
</g>
<!-- board_cache_hierarchy_membus_cpu_side_ports&#45;&gt;board_cache_hierarchy_l2&#45;cache&#45;0_mem_side -->
<g id="edge11" class="edge">
<title>board_cache_hierarchy_membus_cpu_side_ports&#45;&gt;board_cache_hierarchy_l2&#45;cache&#45;0_mem_side</title>
<path fill="none" stroke="black" d="M665.63,-170.37C690.84,-145.16 729.4,-106.6 751.6,-84.4"/>
<polygon fill="black" stroke="black" points="662.86,-168.19 658.26,-177.74 667.81,-173.14 662.86,-168.19"/>
</g>
<!-- board_cache_hierarchy_membus_default -->
<g id="node13" class="node">
<title>board_cache_hierarchy_membus_default</title>
<path fill="#586070" stroke="#000000" d="M402.5,-214C402.5,-214 361.5,-214 361.5,-214 355.5,-214 349.5,-208 349.5,-202 349.5,-202 349.5,-190 349.5,-190 349.5,-184 355.5,-178 361.5,-178 361.5,-178 402.5,-178 402.5,-178 408.5,-178 414.5,-184 414.5,-190 414.5,-190 414.5,-202 414.5,-202 414.5,-208 408.5,-214 402.5,-214"/>
<text text-anchor="middle" x="382" y="-192.3" font-family="Arial" font-size="14.00" fill="#000000">default</text>
</g>
<!-- board_cache_hierarchy_membus_badaddr_responder_pio -->
<g id="node14" class="node">
<title>board_cache_hierarchy_membus_badaddr_responder_pio</title>
<path fill="#9f8575" stroke="#000000" d="M399,-84C399,-84 369,-84 369,-84 363,-84 357,-78 357,-72 357,-72 357,-60 357,-60 357,-54 363,-48 369,-48 369,-48 399,-48 399,-48 405,-48 411,-54 411,-60 411,-60 411,-72 411,-72 411,-78 405,-84 399,-84"/>
<text text-anchor="middle" x="384" y="-62.3" font-family="Arial" font-size="14.00" fill="#000000">pio</text>
</g>
<!-- board_cache_hierarchy_membus_default&#45;&gt;board_cache_hierarchy_membus_badaddr_responder_pio -->
<g id="edge12" class="edge">
<title>board_cache_hierarchy_membus_default&#45;&gt;board_cache_hierarchy_membus_badaddr_responder_pio</title>
<path fill="none" stroke="black" d="M382.27,-177.74C382.6,-156.36 383.18,-119.69 383.57,-94.44"/>
<polygon fill="black" stroke="black" points="387.07,-94.45 383.73,-84.4 380.07,-94.34 387.07,-94.45"/>
</g>
<!-- board_cache_hierarchy_l2buses_cpu_side_ports -->
<g id="node15" class="node">
<title>board_cache_hierarchy_l2buses_cpu_side_ports</title>
<path fill="#586070" stroke="#000000" d="M1060,-214C1060,-214 964,-214 964,-214 958,-214 952,-208 952,-202 952,-202 952,-190 952,-190 952,-184 958,-178 964,-178 964,-178 1060,-178 1060,-178 1066,-178 1072,-184 1072,-190 1072,-190 1072,-202 1072,-202 1072,-208 1066,-214 1060,-214"/>
<text text-anchor="middle" x="1012" y="-192.3" font-family="Arial" font-size="14.00" fill="#000000">cpu_side_ports</text>
</g>
<!-- board_cache_hierarchy_l1i&#45;cache&#45;0_mem_side -->
<g id="node20" class="node">
<title>board_cache_hierarchy_l1i&#45;cache&#45;0_mem_side</title>
<path fill="#7f7c77" stroke="#000000" d="M1007.5,-84C1007.5,-84 944.5,-84 944.5,-84 938.5,-84 932.5,-78 932.5,-72 932.5,-72 932.5,-60 932.5,-60 932.5,-54 938.5,-48 944.5,-48 944.5,-48 1007.5,-48 1007.5,-48 1013.5,-48 1019.5,-54 1019.5,-60 1019.5,-60 1019.5,-72 1019.5,-72 1019.5,-78 1013.5,-84 1007.5,-84"/>
<text text-anchor="middle" x="976" y="-62.3" font-family="Arial" font-size="14.00" fill="#000000">mem_side</text>
</g>
<!-- board_cache_hierarchy_l2buses_cpu_side_ports&#45;&gt;board_cache_hierarchy_l1i&#45;cache&#45;0_mem_side -->
<g id="edge13" class="edge">
<title>board_cache_hierarchy_l2buses_cpu_side_ports&#45;&gt;board_cache_hierarchy_l1i&#45;cache&#45;0_mem_side</title>
<path fill="none" stroke="black" d="M1004.42,-168.05C997.33,-142.84 986.95,-105.93 980.89,-84.4"/>
<polygon fill="black" stroke="black" points="1001.07,-169.06 1007.14,-177.74 1007.81,-167.16 1001.07,-169.06"/>
</g>
<!-- board_cache_hierarchy_l1d&#45;cache&#45;0_mem_side -->
<g id="node22" class="node">
<title>board_cache_hierarchy_l1d&#45;cache&#45;0_mem_side</title>
<path fill="#7f7c77" stroke="#000000" d="M1214.5,-84C1214.5,-84 1151.5,-84 1151.5,-84 1145.5,-84 1139.5,-78 1139.5,-72 1139.5,-72 1139.5,-60 1139.5,-60 1139.5,-54 1145.5,-48 1151.5,-48 1151.5,-48 1214.5,-48 1214.5,-48 1220.5,-48 1226.5,-54 1226.5,-60 1226.5,-60 1226.5,-72 1226.5,-72 1226.5,-78 1220.5,-84 1214.5,-84"/>
<text text-anchor="middle" x="1183" y="-62.3" font-family="Arial" font-size="14.00" fill="#000000">mem_side</text>
</g>
<!-- board_cache_hierarchy_l2buses_cpu_side_ports&#45;&gt;board_cache_hierarchy_l1d&#45;cache&#45;0_mem_side -->
<g id="edge14" class="edge">
<title>board_cache_hierarchy_l2buses_cpu_side_ports&#45;&gt;board_cache_hierarchy_l1d&#45;cache&#45;0_mem_side</title>
<path fill="none" stroke="black" d="M1058.29,-173.3C1080.2,-161.95 1106.08,-146.89 1127,-130 1143.74,-116.49 1159.72,-97.72 1170.29,-84.19"/>
<polygon fill="black" stroke="black" points="1056.5,-170.29 1049.17,-177.94 1059.67,-176.53 1056.5,-170.29"/>
</g>
<!-- board_cache_hierarchy_l2buses_mem_side_ports -->
<g id="node16" class="node">
<title>board_cache_hierarchy_l2buses_mem_side_ports</title>
<path fill="#586070" stroke="#000000" d="M922,-214C922,-214 816,-214 816,-214 810,-214 804,-208 804,-202 804,-202 804,-190 804,-190 804,-184 810,-178 816,-178 816,-178 922,-178 922,-178 928,-178 934,-184 934,-190 934,-190 934,-202 934,-202 934,-208 928,-214 922,-214"/>
<text text-anchor="middle" x="869" y="-192.3" font-family="Arial" font-size="14.00" fill="#000000">mem_side_ports</text>
</g>
<!-- board_cache_hierarchy_l2&#45;cache&#45;0_cpu_side -->
<g id="node17" class="node">
<title>board_cache_hierarchy_l2&#45;cache&#45;0_cpu_side</title>
<path fill="#7f7c77" stroke="#000000" d="M895.5,-84C895.5,-84 842.5,-84 842.5,-84 836.5,-84 830.5,-78 830.5,-72 830.5,-72 830.5,-60 830.5,-60 830.5,-54 836.5,-48 842.5,-48 842.5,-48 895.5,-48 895.5,-48 901.5,-48 907.5,-54 907.5,-60 907.5,-60 907.5,-72 907.5,-72 907.5,-78 901.5,-84 895.5,-84"/>
<text text-anchor="middle" x="869" y="-62.3" font-family="Arial" font-size="14.00" fill="#000000">cpu_side</text>
</g>
<!-- board_cache_hierarchy_l2buses_mem_side_ports&#45;&gt;board_cache_hierarchy_l2&#45;cache&#45;0_cpu_side -->
<g id="edge15" class="edge">
<title>board_cache_hierarchy_l2buses_mem_side_ports&#45;&gt;board_cache_hierarchy_l2&#45;cache&#45;0_cpu_side</title>
<path fill="none" stroke="black" d="M869,-177.74C869,-156.36 869,-119.69 869,-94.44"/>
<polygon fill="black" stroke="black" points="872.5,-94.4 869,-84.4 865.5,-94.4 872.5,-94.4"/>
</g>
</g>
</svg>
