<?xml version="1.0" encoding="UTF-8" standalone="no"?>
<!DOCTYPE svg PUBLIC "-//W3C//DTD SVG 1.1//EN"
 "http://www.w3.org/Graphics/SVG/1.1/DTD/svg11.dtd">
<!-- Generated by graphviz version 2.43.0 (0)
 -->
<!-- Title: G Pages: 1 -->
<svg width="1326pt" height="782pt"
 viewBox="0.00 0.00 1326.00 782.00" xmlns="http://www.w3.org/2000/svg" xmlns:xlink="http://www.w3.org/1999/xlink">
<g id="graph0" class="graph" transform="scale(1 1) rotate(0) translate(4 778)">
<title>G</title>
<polygon fill="white" stroke="transparent" points="-4,4 -4,-778 1322,-778 1322,4 -4,4"/>
<g id="clust1" class="cluster">
<title>cluster_root</title>
<g id="a_clust1"><a xlink:title="eventq_index=0&#10;full_system=false&#10;sim_quantum=0&#10;time_sync_enable=false&#10;time_sync_period=100000000000&#10;time_sync_spin_threshold=100000000">
<path fill="#bab6ae" stroke="#000000" d="M20,-8C20,-8 1298,-8 1298,-8 1304,-8 1310,-14 1310,-20 1310,-20 1310,-754 1310,-754 1310,-760 1304,-766 1298,-766 1298,-766 20,-766 20,-766 14,-766 8,-760 8,-754 8,-754 8,-20 8,-20 8,-14 14,-8 20,-8"/>
<text text-anchor="middle" x="659" y="-750.8" font-family="Arial" font-size="14.00" fill="#000000">root </text>
<text text-anchor="middle" x="659" y="-735.8" font-family="Arial" font-size="14.00" fill="#000000">: Root</text>
</a>
</g>
</g>
<g id="clust2" class="cluster">
<title>cluster_board</title>
<g id="a_clust2"><a xlink:title="auto_unlink_shared_backstore=false&#10;cache_line_size=64&#10;eventq_index=0&#10;exit_on_work_items=true&#10;init_param=0&#10;m5ops_base=0&#10;mem_mode=timing&#10;mem_ranges=0:4294967296&#10;memories=board.memory.mem_ctrl.dram&#10;mmap_using_noreserve=false&#10;multi_thread=false&#10;&#10;um_work_ids=16&#10;&#13;eadfile=&#10;&#13;edirect_paths=&#10;shadow_rom_ranges=&#10;shared_backstore=&#10;symbolfile=&#10;thermal_components=&#10;thermal_model=Null&#10;work_begin_ckpt_count=0&#10;work_begin_cpu_id_exit=&#45;1&#10;work_begin_exit_count=0&#10;work_cpus_ckpt_count=0&#10;work_end_ckpt_count=0&#10;work_end_exit_count=0&#10;work_item_id=&#45;1&#10;workload=board.workload">
<path fill="#e4e7eb" stroke="#000000" d="M28,-16C28,-16 1290,-16 1290,-16 1296,-16 1302,-22 1302,-28 1302,-28 1302,-708 1302,-708 1302,-714 1296,-720 1290,-720 1290,-720 28,-720 28,-720 22,-720 16,-714 16,-708 16,-708 16,-28 16,-28 16,-22 22,-16 28,-16"/>
<text text-anchor="middle" x="659" y="-704.8" font-family="Arial" font-size="14.00" fill="#000000">board </text>
<text text-anchor="middle" x="659" y="-689.8" font-family="Arial" font-size="14.00" fill="#000000">: SimpleBoard</text>
</a>
</g>
</g>
<g id="clust6" class="cluster">
<title>cluster_board_processor</title>
<g id="a_clust6"><a xlink:title="eventq_index=0&#10;thermal_domain=Null">
<path fill="#bab6ae" stroke="#000000" d="M310,-314C310,-314 1282,-314 1282,-314 1288,-314 1294,-320 1294,-326 1294,-326 1294,-662 1294,-662 1294,-668 1288,-674 1282,-674 1282,-674 310,-674 310,-674 304,-674 298,-668 298,-662 298,-662 298,-326 298,-326 298,-320 304,-314 310,-314"/>
<text text-anchor="middle" x="796" y="-658.8" font-family="Arial" font-size="14.00" fill="#000000">processor </text>
<text text-anchor="middle" x="796" y="-643.8" font-family="Arial" font-size="14.00" fill="#000000">: HNSWProcessor</text>
</a>
</g>
</g>
<g id="clust7" class="cluster">
<title>cluster_board_processor_cores</title>
<g id="a_clust7"><a xlink:title="eventq_index=0&#10;thermal_domain=Null">
<path fill="#9f9c95" stroke="#000000" d="M318,-322C318,-322 1274,-322 1274,-322 1280,-322 1286,-328 1286,-334 1286,-334 1286,-616 1286,-616 1286,-622 1280,-628 1274,-628 1274,-628 318,-628 318,-628 312,-628 306,-622 306,-616 306,-616 306,-334 306,-334 306,-328 312,-322 318,-322"/>
<text text-anchor="middle" x="796" y="-612.8" font-family="Arial" font-size="14.00" fill="#000000">cores </text>
<text text-anchor="middle" x="796" y="-597.8" font-family="Arial" font-size="14.00" fill="#000000">: HNSWCore</text>
</a>
</g>
</g>
<g id="clust8" class="cluster">
<title>cluster_board_processor_cores_core</title>
<g id="a_clust8"><a xlink:title="LFSTSize=1024&#10;LQEntries=32&#10;LSQCheckLoads=true&#10;LSQDepCheckShift=4&#10;SQEntries=32&#10;SSITSize=1024&#10;activity=0&#10;backComSize=5&#10;branchPred=board.processor.cores.core.branchPred&#10;cacheLoadPorts=200&#10;cacheStorePorts=200&#10;checker=Null&#10;clk_domain=board.clk_domain&#10;commitToDecodeDelay=1&#10;commitToFetchDelay=1&#10;commitToIEWDelay=1&#10;commitToRenameDelay=1&#10;commitWidth=4&#10;cpu_id=&#45;1&#10;decodeToFetchDelay=1&#10;decodeToRenameDelay=1&#10;decodeWidth=4&#10;decoder=board.processor.cores.core.decoder&#10;dispatchWidth=4&#10;do_checkpoint_insts=true&#10;do_statistics_insts=true&#10;eventq_index=0&#10;fetchBufferSize=64&#10;fetchQueueSize=32&#10;fetchToDecodeDelay=1&#10;fetchTrapLatency=1&#10;fetchWidth=4&#10;forwardComSize=5&#10;fuPool=board.processor.cores.core.fuPool&#10;function_trace=false&#10;function_trace_start=0&#10;iewToCommitDelay=1&#10;iewToDecodeDelay=1&#10;iewToFetchDelay=1&#10;iewToRenameDelay=1&#10;interrupts=board.processor.cores.core.interrupts&#10;isa=board.processor.cores.core.isa&#10;issueToExecuteDelay=1&#10;issueWidth=4&#10;max_insts_all_threads=0&#10;max_insts_any_thread=0&#10;mmu=board.processor.cores.core.mmu&#10;&#10;eedsTSO=true&#10;&#10;umIQEntries=64&#10;&#10;umPhysCCRegs=1280&#10;&#10;umPhysFloatRegs=256&#10;&#10;umPhysIntRegs=256&#10;&#10;umPhysMatRegs=2&#10;&#10;umPhysVecPredRegs=32&#10;&#10;umPhysVecRegs=256&#10;&#10;umROBEntries=128&#10;&#10;umRobs=1&#10;&#10;umThreads=1&#10;power_gating_on_idle=false&#10;power_model=&#10;power_state=board.processor.cores.core.power_state&#10;progress_interval=0&#10;pwr_gating_latency=300&#10;&#13;enameToDecodeDelay=1&#10;&#13;enameToFetchDelay=1&#10;&#13;enameToIEWDelay=2&#10;&#13;enameToROBDelay=1&#10;&#13;enameWidth=4&#10;simpoint_start_insts=&#10;smtCommitPolicy=RoundRobin&#10;smtFetchPolicy=RoundRobin&#10;smtIQPolicy=Partitioned&#10;smtIQThreshold=100&#10;smtLSQPolicy=Partitioned&#10;smtLSQThreshold=100&#10;smtNumFetchingThreads=1&#10;smtROBPolicy=Partitioned&#10;smtROBThreshold=100&#10;socket_id=0&#10;squashWidth=8&#10;store_set_clear_period=250000&#10;switched_out=false&#10;syscallRetryLatency=10000&#10;system=board&#10;tracer=board.processor.cores.core.tracer&#10;trapLatency=13&#10;wbWidth=4&#10;workload=board.processor.cores.core.workload">
<path fill="#bbc6d9" stroke="#000000" d="M326,-330C326,-330 1266,-330 1266,-330 1272,-330 1278,-336 1278,-342 1278,-342 1278,-570 1278,-570 1278,-576 1272,-582 1266,-582 1266,-582 326,-582 326,-582 320,-582 314,-576 314,-570 314,-570 314,-342 314,-342 314,-336 320,-330 326,-330"/>
<text text-anchor="middle" x="796" y="-566.8" font-family="Arial" font-size="14.00" fill="#000000">core </text>
<text text-anchor="middle" x="796" y="-551.8" font-family="Arial" font-size="14.00" fill="#000000">: X86O3CPU</text>
</a>
</g>
</g>
<g id="clust9" class="cluster">
<title>cluster_board_processor_cores_core_mmu</title>
<g id="a_clust9"><a xlink:title="dtb=board.processor.cores.core.mmu.dtb&#10;eventq_index=0&#10;itb=board.processor.cores.core.mmu.itb">
<path fill="#bab6ae" stroke="#000000" d="M668,-338C668,-338 1034,-338 1034,-338 1040,-338 1046,-344 1046,-350 1046,-350 1046,-524 1046,-524 1046,-530 1040,-536 1034,-536 1034,-536 668,-536 668,-536 662,-536 656,-530 656,-524 656,-524 656,-350 656,-350 656,-344 662,-338 668,-338"/>
<text text-anchor="middle" x="851" y="-520.8" font-family="Arial" font-size="14.00" fill="#000000">mmu </text>
<text text-anchor="middle" x="851" y="-505.8" font-family="Arial" font-size="14.00" fill="#000000">: X86MMU</text>
</a>
</g>
</g>
<g id="clust10" class="cluster">
<title>cluster_board_processor_cores_core_mmu_itb</title>
<g id="a_clust10"><a xlink:title="entry_type=instruction&#10;eventq_index=0&#10;&#10;ext_level=Null&#10;size=64&#10;system=board&#10;walker=board.processor.cores.core.mmu.itb.walker">
<path fill="#9f9c95" stroke="#000000" d="M867,-346C867,-346 1026,-346 1026,-346 1032,-346 1038,-352 1038,-358 1038,-358 1038,-478 1038,-478 1038,-484 1032,-490 1026,-490 1026,-490 867,-490 867,-490 861,-490 855,-484 855,-478 855,-478 855,-358 855,-358 855,-352 861,-346 867,-346"/>
<text text-anchor="middle" x="946.5" y="-474.8" font-family="Arial" font-size="14.00" fill="#000000">itb </text>
<text text-anchor="middle" x="946.5" y="-459.8" font-family="Arial" font-size="14.00" fill="#000000">: X86TLB</text>
</a>
</g>
</g>
<g id="clust11" class="cluster">
<title>cluster_board_processor_cores_core_mmu_itb_walker</title>
<g id="a_clust11"><a xlink:title="clk_domain=board.clk_domain&#10;eventq_index=0&#10;&#10;um_squash_per_cycle=4&#10;power_model=&#10;power_state=board.processor.cores.core.mmu.itb.walker.power_state&#10;system=board">
<path fill="#84827c" stroke="#000000" d="M875,-354C875,-354 1018,-354 1018,-354 1024,-354 1030,-360 1030,-366 1030,-366 1030,-432 1030,-432 1030,-438 1024,-444 1018,-444 1018,-444 875,-444 875,-444 869,-444 863,-438 863,-432 863,-432 863,-366 863,-366 863,-360 869,-354 875,-354"/>
<text text-anchor="middle" x="946.5" y="-428.8" font-family="Arial" font-size="14.00" fill="#000000">walker </text>
<text text-anchor="middle" x="946.5" y="-413.8" font-family="Arial" font-size="14.00" fill="#000000">: X86PagetableWalker</text>
</a>
</g>
</g>
<g id="clust13" class="cluster">
<title>cluster_board_processor_cores_core_mmu_dtb</title>
<g id="a_clust13"><a xlink:title="entry_type=data&#10;eventq_index=0&#10;&#10;ext_level=Null&#10;size=64&#10;system=board&#10;walker=board.processor.cores.core.mmu.dtb.walker">
<path fill="#9f9c95" stroke="#000000" d="M676,-346C676,-346 835,-346 835,-346 841,-346 847,-352 847,-358 847,-358 847,-478 847,-478 847,-484 841,-490 835,-490 835,-490 676,-490 676,-490 670,-490 664,-484 664,-478 664,-478 664,-358 664,-358 664,-352 670,-346 676,-346"/>
<text text-anchor="middle" x="755.5" y="-474.8" font-family="Arial" font-size="14.00" fill="#000000">dtb </text>
<text text-anchor="middle" x="755.5" y="-459.8" font-family="Arial" font-size="14.00" fill="#000000">: X86TLB</text>
</a>
</g>
</g>
<g id="clust14" class="cluster">
<title>cluster_board_processor_cores_core_mmu_dtb_walker</title>
<g id="a_clust14"><a xlink:title="clk_domain=board.clk_domain&#10;eventq_index=0&#10;&#10;um_squash_per_cycle=4&#10;power_model=&#10;power_state=board.processor.cores.core.mmu.dtb.walker.power_state&#10;system=board">
<path fill="#84827c" stroke="#000000" d="M684,-354C684,-354 827,-354 827,-354 833,-354 839,-360 839,-366 839,-366 839,-432 839,-432 839,-438 833,-444 827,-444 827,-444 684,-444 684,-444 678,-444 672,-438 672,-432 672,-432 672,-366 672,-366 672,-360 678,-354 684,-354"/>
<text text-anchor="middle" x="755.5" y="-428.8" font-family="Arial" font-size="14.00" fill="#000000">walker </text>
<text text-anchor="middle" x="755.5" y="-413.8" font-family="Arial" font-size="14.00" fill="#000000">: X86PagetableWalker</text>
</a>
</g>
</g>
<g id="clust112" class="cluster">
<title>cluster_board_processor_cores_core_interrupts</title>
<g id="a_clust112"><a xlink:title="clk_domain=board.processor.cores.core.interrupts.clk_domain&#10;eventq_index=0&#10;int_latency=1000&#10;pio_latency=100000&#10;system=board">
<path fill="#bab6ae" stroke="#000000" d="M334,-354C334,-354 636,-354 636,-354 642,-354 648,-360 648,-366 648,-366 648,-432 648,-432 648,-438 642,-444 636,-444 636,-444 334,-444 334,-444 328,-444 322,-438 322,-432 322,-432 322,-366 322,-366 322,-360 328,-354 334,-354"/>
<text text-anchor="middle" x="485" y="-428.8" font-family="Arial" font-size="14.00" fill="#000000">interrupts </text>
<text text-anchor="middle" x="485" y="-413.8" font-family="Arial" font-size="14.00" fill="#000000">: X86LocalApic</text>
</a>
</g>
</g>
<g id="clust114" class="cluster">
<title>cluster_board_memory</title>
<g id="a_clust114"><a xlink:title="eventq_index=0&#10;thermal_domain=Null">
<path fill="#bab6ae" stroke="#000000" d="M146,-346C146,-346 278,-346 278,-346 284,-346 290,-352 290,-358 290,-358 290,-478 290,-478 290,-484 284,-490 278,-490 278,-490 146,-490 146,-490 140,-490 134,-484 134,-478 134,-478 134,-358 134,-358 134,-352 140,-346 146,-346"/>
<text text-anchor="middle" x="212" y="-474.8" font-family="Arial" font-size="14.00" fill="#000000">memory </text>
<text text-anchor="middle" x="212" y="-459.8" font-family="Arial" font-size="14.00" fill="#000000">: ChanneledMemory</text>
</a>
</g>
</g>
<g id="clust115" class="cluster">
<title>cluster_board_memory_mem_ctrl</title>
<g id="a_clust115"><a xlink:title="clk_domain=board.clk_domain&#10;command_window=10000&#10;disable_sanity_check=false&#10;dram=board.memory.mem_ctrl.dram&#10;eventq_index=0&#10;mem_sched_policy=frfcfs&#10;min_reads_per_switch=16&#10;min_writes_per_switch=16&#10;power_model=&#10;power_state=board.memory.mem_ctrl.power_state&#10;qos_policy=Null&#10;qos_priorities=1&#10;qos_priority_escalation=false&#10;qos_q_policy=fifo&#10;qos_requestors= &#160;&#160;&#160;&#160;&#160;&#160;&#160;&#160;&#160;&#160;&#160;&#160;&#160;&#160;&#10;qos_syncro_scheduler=false&#10;qos_turnaround_policy=Null&#10;static_backend_latency=10000&#10;static_frontend_latency=10000&#10;system=board&#10;write_high_thresh_perc=85&#10;write_low_thresh_perc=50">
<path fill="#9f9c95" stroke="#000000" d="M208,-354C208,-354 270,-354 270,-354 276,-354 282,-360 282,-366 282,-366 282,-432 282,-432 282,-438 276,-444 270,-444 270,-444 208,-444 208,-444 202,-444 196,-438 196,-432 196,-432 196,-366 196,-366 196,-360 202,-354 208,-354"/>
<text text-anchor="middle" x="239" y="-428.8" font-family="Arial" font-size="14.00" fill="#000000">mem_ctrl </text>
<text text-anchor="middle" x="239" y="-413.8" font-family="Arial" font-size="14.00" fill="#000000">: MemCtrl</text>
</a>
</g>
</g>
<g id="clust119" class="cluster">
<title>cluster_board_cache_hierarchy</title>
<g id="a_clust119"><a xlink:title="eventq_index=0&#10;thermal_domain=Null">
<path fill="#bab6ae" stroke="#000000" d="M290,-24C290,-24 1271,-24 1271,-24 1277,-24 1283,-30 1283,-36 1283,-36 1283,-294 1283,-294 1283,-300 1277,-306 1271,-306 1271,-306 290,-306 290,-306 284,-306 278,-300 278,-294 278,-294 278,-36 278,-36 278,-30 284,-24 290,-24"/>
<text text-anchor="middle" x="780.5" y="-290.8" font-family="Arial" font-size="14.00" fill="#000000">cache_hierarchy </text>
<text text-anchor="middle" x="780.5" y="-275.8" font-family="Arial" font-size="14.00" fill="#000000">: ConfigurableL2CacheHierarchy</text>
</a>
</g>
</g>
<g id="clust120" class="cluster">
<title>cluster_board_cache_hierarchy_membus</title>
<g id="a_clust120"><a xlink:title="clk_domain=board.clk_domain&#10;eventq_index=0&#10;forward_latency=4&#10;frontend_latency=3&#10;header_latency=1&#10;max_outstanding_snoops=512&#10;max_routing_table_size=512&#10;point_of_coherency=true&#10;point_of_unification=true&#10;power_model=&#10;power_state=board.cache_hierarchy.membus.power_state&#10;&#13;esponse_latency=2&#10;snoop_filter=board.cache_hierarchy.membus.snoop_filter&#10;snoop_response_latency=4&#10;system=board&#10;use_default_range=false&#10;width=64">
<path fill="#6f798c" stroke="#000000" d="M298,-32C298,-32 642,-32 642,-32 648,-32 654,-38 654,-44 654,-44 654,-248 654,-248 654,-254 648,-260 642,-260 642,-260 298,-260 298,-260 292,-260 286,-254 286,-248 286,-248 286,-44 286,-44 286,-38 292,-32 298,-32"/>
<text text-anchor="middle" x="470" y="-244.8" font-family="Arial" font-size="14.00" fill="#000000">membus </text>
<text text-anchor="middle" x="470" y="-229.8" font-family="Arial" font-size="14.00" fill="#000000">: SystemXBar</text>
</a>
</g>
</g>
<g id="clust123" class="cluster">
<title>cluster_board_cache_hierarchy_membus_badaddr_responder</title>
<g id="a_clust123"><a xlink:title="clk_domain=board.clk_domain&#10;eventq_index=0&#10;fake_mem=false&#10;pio_addr=0&#10;pio_latency=100000&#10;pio_size=8&#10;power_model=&#10;power_state=board.cache_hierarchy.membus.badaddr_responder.power_state&#10;&#13;et_bad_addr=true&#10;&#13;et_data16=65535&#10;&#13;et_data32=4294967295&#10;&#13;et_data64=18446744073709551615&#10;&#13;et_data8=255&#10;system=board&#10;update_data=false&#10;warn_access=">
<path fill="#c7a793" stroke="#000000" d="M306,-40C306,-40 439,-40 439,-40 445,-40 451,-46 451,-52 451,-52 451,-118 451,-118 451,-124 445,-130 439,-130 439,-130 306,-130 306,-130 300,-130 294,-124 294,-118 294,-118 294,-52 294,-52 294,-46 300,-40 306,-40"/>
<text text-anchor="middle" x="372.5" y="-114.8" font-family="Arial" font-size="14.00" fill="#000000">badaddr_responder </text>
<text text-anchor="middle" x="372.5" y="-99.8" font-family="Arial" font-size="14.00" fill="#000000">: BadAddr</text>
</a>
</g>
</g>
<g id="clust125" class="cluster">
<title>cluster_board_cache_hierarchy_l2buses</title>
<g id="a_clust125"><a xlink:title="clk_domain=board.clk_domain&#10;eventq_index=0&#10;forward_latency=0&#10;frontend_latency=1&#10;header_latency=1&#10;max_outstanding_snoops=512&#10;max_routing_table_size=512&#10;point_of_coherency=false&#10;point_of_unification=true&#10;power_model=&#10;power_state=board.cache_hierarchy.l2buses.power_state&#10;&#13;esponse_latency=1&#10;snoop_filter=board.cache_hierarchy.l2buses.snoop_filter&#10;snoop_response_latency=1&#10;system=board&#10;use_default_range=false&#10;width=32">
<path fill="#6f798c" stroke="#000000" d="M753,-170C753,-170 1013,-170 1013,-170 1019,-170 1025,-176 1025,-182 1025,-182 1025,-248 1025,-248 1025,-254 1019,-260 1013,-260 1013,-260 753,-260 753,-260 747,-260 741,-254 741,-248 741,-248 741,-182 741,-182 741,-176 747,-170 753,-170"/>
<text text-anchor="middle" x="883" y="-244.8" font-family="Arial" font-size="14.00" fill="#000000">l2buses </text>
<text text-anchor="middle" x="883" y="-229.8" font-family="Arial" font-size="14.00" fill="#000000">: L2XBar</text>
</a>
</g>
</g>
<g id="clust128" class="cluster">
<title>cluster_board_cache_hierarchy_l2&#45;cache&#45;0</title>
<g id="a_clust128"><a xlink:title="addr_ranges=0:18446744073709551615&#10;assoc=16&#10;clk_domain=board.clk_domain&#10;clusivity=mostly_incl&#10;compressor=Null&#10;data_latency=10&#10;demand_mshr_reserve=1&#10;eventq_index=0&#10;is_read_only=false&#10;max_miss_count=0&#10;move_contractions=true&#10;mshrs=20&#10;partitioning_manager=Null&#10;power_model=&#10;power_state=board.cache_hierarchy.l2&#45;cache&#45;0.power_state&#10;prefetcher=board.cache_hierarchy.l2&#45;cache&#45;0.prefetcher&#10;&#13;eplace_expansions=true&#10;&#13;eplacement_policy=board.cache_hierarchy.l2&#45;cache&#45;0.replacement_policy&#10;&#13;esponse_latency=1&#10;sequential_access=false&#10;size=2097152&#10;system=board&#10;tag_latency=10&#10;tags=board.cache_hierarchy.l2&#45;cache&#45;0.tags&#10;tgts_per_mshr=12&#10;warmup_percentage=0&#10;write_allocator=Null&#10;write_buffers=8&#10;writeback_clean=false">
<path fill="#9f9c95" stroke="#000000" d="M674,-40C674,-40 849,-40 849,-40 855,-40 861,-46 861,-52 861,-52 861,-118 861,-118 861,-124 855,-130 849,-130 849,-130 674,-130 674,-130 668,-130 662,-124 662,-118 662,-118 662,-52 662,-52 662,-46 668,-40 674,-40"/>
<text text-anchor="middle" x="761.5" y="-114.8" font-family="Arial" font-size="14.00" fill="#000000">l2&#45;cache&#45;0 </text>
<text text-anchor="middle" x="761.5" y="-99.8" font-family="Arial" font-size="14.00" fill="#000000">: L2Cache</text>
</a>
</g>
</g>
<g id="clust138" class="cluster">
<title>cluster_board_cache_hierarchy_l1i&#45;cache&#45;0</title>
<g id="a_clust138"><a xlink:title="addr_ranges=0:18446744073709551615&#10;assoc=8&#10;clk_domain=board.clk_domain&#10;clusivity=mostly_incl&#10;compressor=Null&#10;data_latency=1&#10;demand_mshr_reserve=1&#10;eventq_index=0&#10;is_read_only=false&#10;max_miss_count=0&#10;move_contractions=true&#10;mshrs=16&#10;partitioning_manager=Null&#10;power_model=&#10;power_state=board.cache_hierarchy.l1i&#45;cache&#45;0.power_state&#10;prefetcher=board.cache_hierarchy.l1i&#45;cache&#45;0.prefetcher&#10;&#13;eplace_expansions=true&#10;&#13;eplacement_policy=board.cache_hierarchy.l1i&#45;cache&#45;0.replacement_policy&#10;&#13;esponse_latency=1&#10;sequential_access=false&#10;size=32768&#10;system=board&#10;tag_latency=1&#10;tags=board.cache_hierarchy.l1i&#45;cache&#45;0.tags&#10;tgts_per_mshr=20&#10;warmup_percentage=0&#10;write_allocator=Null&#10;write_buffers=8&#10;writeback_clean=true">
<path fill="#9f9c95" stroke="#000000" d="M881,-40C881,-40 1056,-40 1056,-40 1062,-40 1068,-46 1068,-52 1068,-52 1068,-118 1068,-118 1068,-124 1062,-130 1056,-130 1056,-130 881,-130 881,-130 875,-130 869,-124 869,-118 869,-118 869,-52 869,-52 869,-46 875,-40 881,-40"/>
<text text-anchor="middle" x="968.5" y="-114.8" font-family="Arial" font-size="14.00" fill="#000000">l1i&#45;cache&#45;0 </text>
<text text-anchor="middle" x="968.5" y="-99.8" font-family="Arial" font-size="14.00" fill="#000000">: L1ICache</text>
</a>
</g>
</g>
<g id="clust148" class="cluster">
<title>cluster_board_cache_hierarchy_l1d&#45;cache&#45;0</title>
<g id="a_clust148"><a xlink:title="addr_ranges=0:18446744073709551615&#10;assoc=8&#10;clk_domain=board.clk_domain&#10;clusivity=mostly_incl&#10;compressor=Null&#10;data_latency=1&#10;demand_mshr_reserve=1&#10;eventq_index=0&#10;is_read_only=false&#10;max_miss_count=0&#10;move_contractions=true&#10;mshrs=16&#10;partitioning_manager=Null&#10;power_model=&#10;power_state=board.cache_hierarchy.l1d&#45;cache&#45;0.power_state&#10;prefetcher=board.cache_hierarchy.l1d&#45;cache&#45;0.prefetcher&#10;&#13;eplace_expansions=true&#10;&#13;eplacement_policy=board.cache_hierarchy.l1d&#45;cache&#45;0.replacement_policy&#10;&#13;esponse_latency=1&#10;sequential_access=false&#10;size=32768&#10;system=board&#10;tag_latency=1&#10;tags=board.cache_hierarchy.l1d&#45;cache&#45;0.tags&#10;tgts_per_mshr=20&#10;warmup_percentage=0&#10;write_allocator=Null&#10;write_buffers=8&#10;writeback_clean=false">
<path fill="#9f9c95" stroke="#000000" d="M1088,-40C1088,-40 1263,-40 1263,-40 1269,-40 1275,-46 1275,-52 1275,-52 1275,-118 1275,-118 1275,-124 1269,-130 1263,-130 1263,-130 1088,-130 1088,-130 1082,-130 1076,-124 1076,-118 1076,-118 1076,-52 1076,-52 1076,-46 1082,-40 1088,-40"/>
<text text-anchor="middle" x="1175.5" y="-114.8" font-family="Arial" font-size="14.00" fill="#000000">l1d&#45;cache&#45;0 </text>
<text text-anchor="middle" x="1175.5" y="-99.8" font-family="Arial" font-size="14.00" fill="#000000">: L1DCache</text>
</a>
</g>
</g>
<!-- board_system_port -->
<g id="node1" class="node">
<title>board_system_port</title>
<path fill="#b6b8bc" stroke="#000000" d="M114,-398C114,-398 36,-398 36,-398 30,-398 24,-392 24,-386 24,-386 24,-374 24,-374 24,-368 30,-362 36,-362 36,-362 114,-362 114,-362 120,-362 126,-368 126,-374 126,-374 126,-386 126,-386 126,-392 120,-398 114,-398"/>
<text text-anchor="middle" x="75" y="-376.3" font-family="Arial" font-size="14.00" fill="#000000">system_port</text>
</g>
<!-- board_cache_hierarchy_membus_cpu_side_ports -->
<g id="node10" class="node">
<title>board_cache_hierarchy_membus_cpu_side_ports</title>
<path fill="#586070" stroke="#000000" d="M634,-214C634,-214 538,-214 538,-214 532,-214 526,-208 526,-202 526,-202 526,-190 526,-190 526,-184 532,-178 538,-178 538,-178 634,-178 634,-178 640,-178 646,-184 646,-190 646,-190 646,-202 646,-202 646,-208 640,-214 634,-214"/>
<text text-anchor="middle" x="586" y="-192.3" font-family="Arial" font-size="14.00" fill="#000000">cpu_side_ports</text>
</g>
<!-- board_system_port&#45;&gt;board_cache_hierarchy_membus_cpu_side_ports -->
<g id="edge1" class="edge">
<title>board_system_port&#45;&gt;board_cache_hierarchy_membus_cpu_side_ports</title>
<path fill="none" stroke="black" d="M97.74,-361.96C120.31,-346.15 156.58,-323.65 192,-314 226.85,-304.51 485.57,-323.81 517,-306 548.31,-288.26 567.5,-249.85 577.45,-223.71"/>
<polygon fill="black" stroke="black" points="580.84,-224.61 580.93,-214.02 574.25,-222.25 580.84,-224.61"/>
</g>
<!-- board_processor_cores_core_icache_port -->
<g id="node2" class="node">
<title>board_processor_cores_core_icache_port</title>
<path fill="#959ead" stroke="#000000" d="M1138,-398C1138,-398 1066,-398 1066,-398 1060,-398 1054,-392 1054,-386 1054,-386 1054,-374 1054,-374 1054,-368 1060,-362 1066,-362 1066,-362 1138,-362 1138,-362 1144,-362 1150,-368 1150,-374 1150,-374 1150,-386 1150,-386 1150,-392 1144,-398 1138,-398"/>
<text text-anchor="middle" x="1102" y="-376.3" font-family="Arial" font-size="14.00" fill="#000000">icache_port</text>
</g>
<!-- board_cache_hierarchy_l1i&#45;cache&#45;0_cpu_side -->
<g id="node18" class="node">
<title>board_cache_hierarchy_l1i&#45;cache&#45;0_cpu_side</title>
<path fill="#7f7c77" stroke="#000000" d="M1047.5,-84C1047.5,-84 994.5,-84 994.5,-84 988.5,-84 982.5,-78 982.5,-72 982.5,-72 982.5,-60 982.5,-60 982.5,-54 988.5,-48 994.5,-48 994.5,-48 1047.5,-48 1047.5,-48 1053.5,-48 1059.5,-54 1059.5,-60 1059.5,-60 1059.5,-72 1059.5,-72 1059.5,-78 1053.5,-84 1047.5,-84"/>
<text text-anchor="middle" x="1021" y="-62.3" font-family="Arial" font-size="14.00" fill="#000000">cpu_side</text>
</g>
<!-- board_processor_cores_core_icache_port&#45;&gt;board_cache_hierarchy_l1i&#45;cache&#45;0_cpu_side -->
<g id="edge2" class="edge">
<title>board_processor_cores_core_icache_port&#45;&gt;board_cache_hierarchy_l1i&#45;cache&#45;0_cpu_side</title>
<path fill="none" stroke="black" d="M1097.53,-361.78C1084.14,-310.22 1044.3,-156.74 1028.03,-94.09"/>
<polygon fill="black" stroke="black" points="1031.36,-92.97 1025.46,-84.17 1024.58,-94.72 1031.36,-92.97"/>
</g>
<!-- board_processor_cores_core_dcache_port -->
<g id="node3" class="node">
<title>board_processor_cores_core_dcache_port</title>
<path fill="#959ead" stroke="#000000" d="M1257.5,-398C1257.5,-398 1180.5,-398 1180.5,-398 1174.5,-398 1168.5,-392 1168.5,-386 1168.5,-386 1168.5,-374 1168.5,-374 1168.5,-368 1174.5,-362 1180.5,-362 1180.5,-362 1257.5,-362 1257.5,-362 1263.5,-362 1269.5,-368 1269.5,-374 1269.5,-374 1269.5,-386 1269.5,-386 1269.5,-392 1263.5,-398 1257.5,-398"/>
<text text-anchor="middle" x="1219" y="-376.3" font-family="Arial" font-size="14.00" fill="#000000">dcache_port</text>
</g>
<!-- board_cache_hierarchy_l1d&#45;cache&#45;0_cpu_side -->
<g id="node20" class="node">
<title>board_cache_hierarchy_l1d&#45;cache&#45;0_cpu_side</title>
<path fill="#7f7c77" stroke="#000000" d="M1254.5,-84C1254.5,-84 1201.5,-84 1201.5,-84 1195.5,-84 1189.5,-78 1189.5,-72 1189.5,-72 1189.5,-60 1189.5,-60 1189.5,-54 1195.5,-48 1201.5,-48 1201.5,-48 1254.5,-48 1254.5,-48 1260.5,-48 1266.5,-54 1266.5,-60 1266.5,-60 1266.5,-72 1266.5,-72 1266.5,-78 1260.5,-84 1254.5,-84"/>
<text text-anchor="middle" x="1228" y="-62.3" font-family="Arial" font-size="14.00" fill="#000000">cpu_side</text>
</g>
<!-- board_processor_cores_core_dcache_port&#45;&gt;board_cache_hierarchy_l1d&#45;cache&#45;0_cpu_side -->
<g id="edge3" class="edge">
<title>board_processor_cores_core_dcache_port&#45;&gt;board_cache_hierarchy_l1d&#45;cache&#45;0_cpu_side</title>
<path fill="none" stroke="black" d="M1219.5,-361.78C1220.98,-310.32 1225.39,-157.37 1227.21,-94.48"/>
<polygon fill="black" stroke="black" points="1230.71,-94.26 1227.5,-84.17 1223.72,-94.06 1230.71,-94.26"/>
</g>
<!-- board_processor_cores_core_mmu_itb_walker_port -->
<g id="node4" class="node">
<title>board_processor_cores_core_mmu_itb_walker_port</title>
<path fill="#6a6863" stroke="#000000" d="M913,-398C913,-398 883,-398 883,-398 877,-398 871,-392 871,-386 871,-386 871,-374 871,-374 871,-368 877,-362 883,-362 883,-362 913,-362 913,-362 919,-362 925,-368 925,-374 925,-374 925,-386 925,-386 925,-392 919,-398 913,-398"/>
<text text-anchor="middle" x="898" y="-376.3" font-family="Arial" font-size="14.00" fill="#000000">port</text>
</g>
<!-- board_processor_cores_core_mmu_itb_walker_port&#45;&gt;board_cache_hierarchy_membus_cpu_side_ports -->
<g id="edge4" class="edge">
<title>board_processor_cores_core_mmu_itb_walker_port&#45;&gt;board_cache_hierarchy_membus_cpu_side_ports</title>
<path fill="none" stroke="black" d="M888.78,-361.79C879.47,-346.33 863.54,-324.48 843,-314 821.96,-303.26 759.19,-314.11 737,-306 686.76,-287.64 638.39,-247.49 610.45,-221.38"/>
<polygon fill="black" stroke="black" points="612.79,-218.77 603.13,-214.41 607.97,-223.84 612.79,-218.77"/>
</g>
<!-- board_processor_cores_core_mmu_dtb_walker_port -->
<g id="node5" class="node">
<title>board_processor_cores_core_mmu_dtb_walker_port</title>
<path fill="#6a6863" stroke="#000000" d="M722,-398C722,-398 692,-398 692,-398 686,-398 680,-392 680,-386 680,-386 680,-374 680,-374 680,-368 686,-362 692,-362 692,-362 722,-362 722,-362 728,-362 734,-368 734,-374 734,-374 734,-386 734,-386 734,-392 728,-398 722,-398"/>
<text text-anchor="middle" x="707" y="-376.3" font-family="Arial" font-size="14.00" fill="#000000">port</text>
</g>
<!-- board_processor_cores_core_mmu_dtb_walker_port&#45;&gt;board_cache_hierarchy_membus_cpu_side_ports -->
<g id="edge5" class="edge">
<title>board_processor_cores_core_mmu_dtb_walker_port&#45;&gt;board_cache_hierarchy_membus_cpu_side_ports</title>
<path fill="none" stroke="black" d="M695.62,-361.88C674.27,-329.76 628.11,-260.34 603.04,-222.63"/>
<polygon fill="black" stroke="black" points="605.89,-220.6 597.44,-214.21 600.06,-224.47 605.89,-220.6"/>
</g>
<!-- board_processor_cores_core_interrupts_int_requestor -->
<g id="node6" class="node">
<title>board_processor_cores_core_interrupts_int_requestor</title>
<path fill="#94918b" stroke="#000000" d="M628,-398C628,-398 544,-398 544,-398 538,-398 532,-392 532,-386 532,-386 532,-374 532,-374 532,-368 538,-362 544,-362 544,-362 628,-362 628,-362 634,-362 640,-368 640,-374 640,-374 640,-386 640,-386 640,-392 634,-398 628,-398"/>
<text text-anchor="middle" x="586" y="-376.3" font-family="Arial" font-size="14.00" fill="#000000">int_requestor</text>
</g>
<!-- board_processor_cores_core_interrupts_int_requestor&#45;&gt;board_cache_hierarchy_membus_cpu_side_ports -->
<g id="edge6" class="edge">
<title>board_processor_cores_core_interrupts_int_requestor&#45;&gt;board_cache_hierarchy_membus_cpu_side_ports</title>
<path fill="none" stroke="black" d="M586,-361.88C586,-330.31 586,-262.67 586,-224.57"/>
<polygon fill="black" stroke="black" points="589.5,-224.21 586,-214.21 582.5,-224.21 589.5,-224.21"/>
</g>
<!-- board_processor_cores_core_interrupts_int_responder -->
<g id="node7" class="node">
<title>board_processor_cores_core_interrupts_int_responder</title>
<path fill="#94918b" stroke="#000000" d="M502,-398C502,-398 414,-398 414,-398 408,-398 402,-392 402,-386 402,-386 402,-374 402,-374 402,-368 408,-362 414,-362 414,-362 502,-362 502,-362 508,-362 514,-368 514,-374 514,-374 514,-386 514,-386 514,-392 508,-398 502,-398"/>
<text text-anchor="middle" x="458" y="-376.3" font-family="Arial" font-size="14.00" fill="#000000">int_responder</text>
</g>
<!-- board_cache_hierarchy_membus_mem_side_ports -->
<g id="node11" class="node">
<title>board_cache_hierarchy_membus_mem_side_ports</title>
<path fill="#586070" stroke="#000000" d="M496,-214C496,-214 390,-214 390,-214 384,-214 378,-208 378,-202 378,-202 378,-190 378,-190 378,-184 384,-178 390,-178 390,-178 496,-178 496,-178 502,-178 508,-184 508,-190 508,-190 508,-202 508,-202 508,-208 502,-214 496,-214"/>
<text text-anchor="middle" x="443" y="-192.3" font-family="Arial" font-size="14.00" fill="#000000">mem_side_ports</text>
</g>
<!-- board_processor_cores_core_interrupts_int_responder&#45;&gt;board_cache_hierarchy_membus_mem_side_ports -->
<g id="edge7" class="edge">
<title>board_processor_cores_core_interrupts_int_responder&#45;&gt;board_cache_hierarchy_membus_mem_side_ports</title>
<path fill="none" stroke="black" d="M455.74,-351.54C452.6,-313.49 447.03,-245.85 444.42,-214.21"/>
<polygon fill="black" stroke="black" points="452.28,-352.2 456.59,-361.88 459.26,-351.62 452.28,-352.2"/>
</g>
<!-- board_processor_cores_core_interrupts_pio -->
<g id="node8" class="node">
<title>board_processor_cores_core_interrupts_pio</title>
<path fill="#94918b" stroke="#000000" d="M372,-398C372,-398 342,-398 342,-398 336,-398 330,-392 330,-386 330,-386 330,-374 330,-374 330,-368 336,-362 342,-362 342,-362 372,-362 372,-362 378,-362 384,-368 384,-374 384,-374 384,-386 384,-386 384,-392 378,-398 372,-398"/>
<text text-anchor="middle" x="357" y="-376.3" font-family="Arial" font-size="14.00" fill="#000000">pio</text>
</g>
<!-- board_processor_cores_core_interrupts_pio&#45;&gt;board_cache_hierarchy_membus_mem_side_ports -->
<g id="edge8" class="edge">
<title>board_processor_cores_core_interrupts_pio&#45;&gt;board_cache_hierarchy_membus_mem_side_ports</title>
<path fill="none" stroke="black" d="M369.52,-352.51C387.41,-314.65 419.79,-246.12 434.87,-214.21"/>
<polygon fill="black" stroke="black" points="366.2,-351.34 365.09,-361.88 372.53,-354.33 366.2,-351.34"/>
</g>
<!-- board_memory_mem_ctrl_port -->
<g id="node9" class="node">
<title>board_memory_mem_ctrl_port</title>
<path fill="#7f7c77" stroke="#000000" d="M262,-398C262,-398 232,-398 232,-398 226,-398 220,-392 220,-386 220,-386 220,-374 220,-374 220,-368 226,-362 232,-362 232,-362 262,-362 262,-362 268,-362 274,-368 274,-374 274,-374 274,-386 274,-386 274,-392 268,-398 262,-398"/>
<text text-anchor="middle" x="247" y="-376.3" font-family="Arial" font-size="14.00" fill="#000000">port</text>
</g>
<!-- board_memory_mem_ctrl_port&#45;&gt;board_cache_hierarchy_membus_mem_side_ports -->
<g id="edge9" class="edge">
<title>board_memory_mem_ctrl_port&#45;&gt;board_cache_hierarchy_membus_mem_side_ports</title>
<path fill="none" stroke="black" d="M267.21,-354.36C280.2,-340.23 298.31,-323.48 318,-314 338.68,-304.05 349.62,-318.28 369,-306 403.77,-283.96 426.23,-239.02 436.5,-214.29"/>
<polygon fill="black" stroke="black" points="264.56,-352.07 260.53,-361.88 269.79,-356.72 264.56,-352.07"/>
</g>
<!-- board_cache_hierarchy_l2&#45;cache&#45;0_mem_side -->
<g id="node17" class="node">
<title>board_cache_hierarchy_l2&#45;cache&#45;0_mem_side</title>
<path fill="#7f7c77" stroke="#000000" d="M745.5,-84C745.5,-84 682.5,-84 682.5,-84 676.5,-84 670.5,-78 670.5,-72 670.5,-72 670.5,-60 670.5,-60 670.5,-54 676.5,-48 682.5,-48 682.5,-48 745.5,-48 745.5,-48 751.5,-48 757.5,-54 757.5,-60 757.5,-60 757.5,-72 757.5,-72 757.5,-78 751.5,-84 745.5,-84"/>
<text text-anchor="middle" x="714" y="-62.3" font-family="Arial" font-size="14.00" fill="#000000">mem_side</text>
</g>
<!-- board_cache_hierarchy_membus_cpu_side_ports&#45;&gt;board_cache_hierarchy_l2&#45;cache&#45;0_mem_side -->
<g id="edge10" class="edge">
<title>board_cache_hierarchy_membus_cpu_side_ports&#45;&gt;board_cache_hierarchy_l2&#45;cache&#45;0_mem_side</title>
<path fill="none" stroke="black" d="M610.63,-170.37C635.84,-145.16 674.4,-106.6 696.6,-84.4"/>
<polygon fill="black" stroke="black" points="607.86,-168.19 603.26,-177.74 612.81,-173.14 607.86,-168.19"/>
</g>
<!-- board_cache_hierarchy_membus_default -->
<g id="node12" class="node">
<title>board_cache_hierarchy_membus_default</title>
<path fill="#586070" stroke="#000000" d="M347.5,-214C347.5,-214 306.5,-214 306.5,-214 300.5,-214 294.5,-208 294.5,-202 294.5,-202 294.5,-190 294.5,-190 294.5,-184 300.5,-178 306.5,-178 306.5,-178 347.5,-178 347.5,-178 353.5,-178 359.5,-184 359.5,-190 359.5,-190 359.5,-202 359.5,-202 359.5,-208 353.5,-214 347.5,-214"/>
<text text-anchor="middle" x="327" y="-192.3" font-family="Arial" font-size="14.00" fill="#000000">default</text>
</g>
<!-- board_cache_hierarchy_membus_badaddr_responder_pio -->
<g id="node13" class="node">
<title>board_cache_hierarchy_membus_badaddr_responder_pio</title>
<path fill="#9f8575" stroke="#000000" d="M344,-84C344,-84 314,-84 314,-84 308,-84 302,-78 302,-72 302,-72 302,-60 302,-60 302,-54 308,-48 314,-48 314,-48 344,-48 344,-48 350,-48 356,-54 356,-60 356,-60 356,-72 356,-72 356,-78 350,-84 344,-84"/>
<text text-anchor="middle" x="329" y="-62.3" font-family="Arial" font-size="14.00" fill="#000000">pio</text>
</g>
<!-- board_cache_hierarchy_membus_default&#45;&gt;board_cache_hierarchy_membus_badaddr_responder_pio -->
<g id="edge11" class="edge">
<title>board_cache_hierarchy_membus_default&#45;&gt;board_cache_hierarchy_membus_badaddr_responder_pio</title>
<path fill="none" stroke="black" d="M327.27,-177.74C327.6,-156.36 328.18,-119.69 328.57,-94.44"/>
<polygon fill="black" stroke="black" points="332.07,-94.45 328.73,-84.4 325.07,-94.34 332.07,-94.45"/>
</g>
<!-- board_cache_hierarchy_l2buses_cpu_side_ports -->
<g id="node14" class="node">
<title>board_cache_hierarchy_l2buses_cpu_side_ports</title>
<path fill="#586070" stroke="#000000" d="M1005,-214C1005,-214 909,-214 909,-214 903,-214 897,-208 897,-202 897,-202 897,-190 897,-190 897,-184 903,-178 909,-178 909,-178 1005,-178 1005,-178 1011,-178 1017,-184 1017,-190 1017,-190 1017,-202 1017,-202 1017,-208 1011,-214 1005,-214"/>
<text text-anchor="middle" x="957" y="-192.3" font-family="Arial" font-size="14.00" fill="#000000">cpu_side_ports</text>
</g>
<!-- board_cache_hierarchy_l1i&#45;cache&#45;0_mem_side -->
<g id="node19" class="node">
<title>board_cache_hierarchy_l1i&#45;cache&#45;0_mem_side</title>
<path fill="#7f7c77" stroke="#000000" d="M952.5,-84C952.5,-84 889.5,-84 889.5,-84 883.5,-84 877.5,-78 877.5,-72 877.5,-72 877.5,-60 877.5,-60 877.5,-54 883.5,-48 889.5,-48 889.5,-48 952.5,-48 952.5,-48 958.5,-48 964.5,-54 964.5,-60 964.5,-60 964.5,-72 964.5,-72 964.5,-78 958.5,-84 952.5,-84"/>
<text text-anchor="middle" x="921" y="-62.3" font-family="Arial" font-size="14.00" fill="#000000">mem_side</text>
</g>
<!-- board_cache_hierarchy_l2buses_cpu_side_ports&#45;&gt;board_cache_hierarchy_l1i&#45;cache&#45;0_mem_side -->
<g id="edge12" class="edge">
<title>board_cache_hierarchy_l2buses_cpu_side_ports&#45;&gt;board_cache_hierarchy_l1i&#45;cache&#45;0_mem_side</title>
<path fill="none" stroke="black" d="M949.42,-168.05C942.33,-142.84 931.95,-105.93 925.89,-84.4"/>
<polygon fill="black" stroke="black" points="946.07,-169.06 952.14,-177.74 952.81,-167.16 946.07,-169.06"/>
</g>
<!-- board_cache_hierarchy_l1d&#45;cache&#45;0_mem_side -->
<g id="node21" class="node">
<title>board_cache_hierarchy_l1d&#45;cache&#45;0_mem_side</title>
<path fill="#7f7c77" stroke="#000000" d="M1159.5,-84C1159.5,-84 1096.5,-84 1096.5,-84 1090.5,-84 1084.5,-78 1084.5,-72 1084.5,-72 1084.5,-60 1084.5,-60 1084.5,-54 1090.5,-48 1096.5,-48 1096.5,-48 1159.5,-48 1159.5,-48 1165.5,-48 1171.5,-54 1171.5,-60 1171.5,-60 1171.5,-72 1171.5,-72 1171.5,-78 1165.5,-84 1159.5,-84"/>
<text text-anchor="middle" x="1128" y="-62.3" font-family="Arial" font-size="14.00" fill="#000000">mem_side</text>
</g>
<!-- board_cache_hierarchy_l2buses_cpu_side_ports&#45;&gt;board_cache_hierarchy_l1d&#45;cache&#45;0_mem_side -->
<g id="edge13" class="edge">
<title>board_cache_hierarchy_l2buses_cpu_side_ports&#45;&gt;board_cache_hierarchy_l1d&#45;cache&#45;0_mem_side</title>
<path fill="none" stroke="black" d="M1003.29,-173.3C1025.2,-161.95 1051.08,-146.89 1072,-130 1088.74,-116.49 1104.72,-97.72 1115.29,-84.19"/>
<polygon fill="black" stroke="black" points="1001.5,-170.29 994.17,-177.94 1004.67,-176.53 1001.5,-170.29"/>
</g>
<!-- board_cache_hierarchy_l2buses_mem_side_ports -->
<g id="node15" class="node">
<title>board_cache_hierarchy_l2buses_mem_side_ports</title>
<path fill="#586070" stroke="#000000" d="M867,-214C867,-214 761,-214 761,-214 755,-214 749,-208 749,-202 749,-202 749,-190 749,-190 749,-184 755,-178 761,-178 761,-178 867,-178 867,-178 873,-178 879,-184 879,-190 879,-190 879,-202 879,-202 879,-208 873,-214 867,-214"/>
<text text-anchor="middle" x="814" y="-192.3" font-family="Arial" font-size="14.00" fill="#000000">mem_side_ports</text>
</g>
<!-- board_cache_hierarchy_l2&#45;cache&#45;0_cpu_side -->
<g id="node16" class="node">
<title>board_cache_hierarchy_l2&#45;cache&#45;0_cpu_side</title>
<path fill="#7f7c77" stroke="#000000" d="M840.5,-84C840.5,-84 787.5,-84 787.5,-84 781.5,-84 775.5,-78 775.5,-72 775.5,-72 775.5,-60 775.5,-60 775.5,-54 781.5,-48 787.5,-48 787.5,-48 840.5,-48 840.5,-48 846.5,-48 852.5,-54 852.5,-60 852.5,-60 852.5,-72 852.5,-72 852.5,-78 846.5,-84 840.5,-84"/>
<text text-anchor="middle" x="814" y="-62.3" font-family="Arial" font-size="14.00" fill="#000000">cpu_side</text>
</g>
<!-- board_cache_hierarchy_l2buses_mem_side_ports&#45;&gt;board_cache_hierarchy_l2&#45;cache&#45;0_cpu_side -->
<g id="edge14" class="edge">
<title>board_cache_hierarchy_l2buses_mem_side_ports&#45;&gt;board_cache_hierarchy_l2&#45;cache&#45;0_cpu_side</title>
<path fill="none" stroke="black" d="M814,-177.74C814,-156.36 814,-119.69 814,-94.44"/>
<polygon fill="black" stroke="black" points="817.5,-94.4 814,-84.4 810.5,-94.4 817.5,-94.4"/>
</g>
</g>
</svg>
